M48
;GenerationSoftware,Autodesk,EAGLE,9.6.2*%
;CreationDate,2022-05-28T20:40:54Z*%
FMAT,2
ICI,OFF
METRIC,TZ,000.000
T6C0.350
T5C0.700
T4C0.813
T3C0.914
T2C1.016
T1C3.200
%
G90
M71
T1
X53975Y14605
X31115Y15875
T2
X2540Y63500
X2540Y66040
X2540Y68580
X82550Y31750
X82550Y34290
X82550Y36830
X82550Y46990
X82550Y44450
X82550Y41910
X82550Y57150
X82550Y54610
X82550Y52070
X2540Y80645
X2540Y78105
X2540Y75565
X2540Y73025
X82550Y69850
X82550Y67310
X82550Y64770
X82550Y62230
X2540Y58420
X2540Y60960
T3
X45085Y8255
X45085Y5715
X42545Y8255
X47625Y5715
X47625Y8255
X42545Y5715
X40005Y8255
X40005Y5715
X37465Y8255
X37465Y5715
T4
X27305Y8255
X27305Y5715
X57150Y5715
X57150Y8255
X62230Y43180
X57150Y43180
X57150Y57150
X62230Y57150
X38735Y66675
X63500Y20955
X63500Y23495
X63500Y26035
X63500Y28575
X63500Y31115
X63500Y33655
X63500Y36195
X63500Y38735
X55880Y38735
X55880Y36195
X55880Y33655
X55880Y31115
X55880Y28575
X55880Y26035
X55880Y23495
X55880Y20955
X27940Y48895
X27940Y51435
X27940Y64135
X27940Y66675
X27940Y53975
X27940Y56515
X27940Y61595
X27940Y59055
X20320Y66675
X20320Y64135
X20320Y61595
X20320Y59055
X20320Y56515
X20320Y53975
X20320Y51435
X20320Y48895
X27940Y20955
X27940Y23495
X27940Y36195
X27940Y38735
X27940Y26035
X27940Y28575
X27940Y33655
X27940Y31115
X20320Y38735
X20320Y36195
X20320Y33655
X20320Y31115
X20320Y28575
X20320Y26035
X20320Y23495
X20320Y20955
X63500Y60960
X63500Y63500
X63500Y66040
X63500Y68580
X63500Y71120
X63500Y73660
X63500Y76200
X63500Y78740
X55880Y78740
X55880Y76200
X55880Y73660
X55880Y71120
X55880Y68580
X55880Y66040
X55880Y63500
X55880Y60960
X27940Y72390
X27940Y74930
X27940Y77470
X27940Y80010
X27940Y82550
X27940Y85090
X27940Y87630
X27940Y90170
X20320Y90170
X20320Y87630
X20320Y85090
X20320Y82550
X20320Y80010
X20320Y77470
X20320Y74930
X20320Y72390
X71755Y41275
X71755Y46355
X71755Y43815
X67945Y48895
X75565Y48895
X33655Y66675
X9525Y48895
X14605Y48895
X38735Y28575
X33655Y28575
X74295Y33655
X69215Y33655
X38735Y85090
X75565Y56515
X67945Y56515
X75565Y51435
X67945Y51435
X67945Y53975
X75565Y53975
X67945Y66040
X75565Y66040
X75565Y63500
X67945Y63500
X69215Y76200
X74295Y76200
X69215Y60960
X74295Y60960
X67945Y71120
X75565Y71120
X57150Y81915
X57150Y86995
X57150Y84455
X62230Y81915
X62230Y86995
X62230Y84455
X75565Y68580
X67945Y68580
X73025Y86995
X70485Y86995
X67945Y78740
X75565Y78740
X43815Y66040
X51435Y66040
X51435Y68580
X43815Y68580
X50165Y71120
X45085Y71120
X43815Y78740
X51435Y78740
X75565Y81280
X67945Y81280
X67945Y31115
X75565Y31115
X69215Y15240
X74295Y15240
X71755Y15240
X75565Y18415
X67945Y18415
X75565Y28575
X67945Y28575
X75565Y26035
X67945Y26035
X75565Y23495
X67945Y23495
X69215Y20955
X74295Y20955
X69215Y36195
X74295Y36195
X67945Y38735
X75565Y38735
X40005Y77470
X32385Y77470
X32385Y74930
X40005Y74930
X38735Y87630
X33655Y87630
X33655Y71120
X38735Y71120
X36195Y71120
X32385Y80010
X40005Y80010
X40005Y82550
X32385Y82550
X32385Y90170
X40005Y90170
X45085Y81280
X50165Y81280
X43815Y59055
X51435Y59055
X9525Y71755
X14605Y71755
X12065Y71755
X40005Y51435
X32385Y51435
X15875Y80010
X8255Y80010
X15875Y77470
X8255Y77470
X15875Y74930
X8255Y74930
X10795Y65405
X13335Y65405
X15875Y82550
X8255Y82550
X15875Y90170
X8255Y90170
X4445Y88900
X4445Y86360
X51435Y56515
X43815Y56515
X51435Y53975
X43815Y53975
X51435Y51435
X43815Y51435
X51435Y48895
X43815Y48895
X33655Y31115
X38735Y31115
X32385Y26035
X40005Y26035
X38735Y18415
X33655Y18415
X32385Y23495
X40005Y23495
X40005Y20955
X32385Y20955
X12065Y36195
X14605Y36195
X32385Y36195
X40005Y36195
X38735Y39370
X33655Y39370
X36195Y39370
X32385Y46355
X40005Y46355
X44450Y18415
X44450Y23495
X44450Y20955
X27940Y45085
X20320Y45085
X32385Y53975
X40005Y53975
X32385Y59055
X40005Y59055
X38735Y56515
X33655Y56515
X51435Y28575
X43815Y28575
X33655Y61595
X38735Y61595
X51435Y26035
X43815Y26035
X45085Y31115
X50165Y31115
X51435Y36195
X43815Y36195
X51435Y38735
X43815Y38735
X48895Y43180
X46355Y43180
X50800Y23495
X50800Y18415
X50800Y20955
X55880Y17780
X63500Y17780
X9525Y57785
X14605Y57785
X12065Y57785
X68580Y10160
X68580Y5080
X68580Y7620
X15875Y61595
X8255Y61595
X80010Y10795
X80010Y3175
X74930Y10795
X74930Y3175
X72390Y3175
X72390Y10795
X77470Y10795
X77470Y3175
X50165Y33655
X45085Y33655
X14605Y85090
X9525Y85090
X50165Y73660
X45085Y73660
X69215Y73660
X74295Y73660
X33655Y85090
T5
X55880Y46355
X55880Y48895
X55880Y51435
X55880Y53975
X63500Y53975
X63500Y51435
X63500Y48895
X63500Y46355
T6
X35560Y62865
X53340Y60325
X53340Y41275
X6350Y45085
X41275Y47625
X51435Y63500
X49530Y63500
X40005Y67945
X30480Y81280
X77470Y19685
X67310Y59055
X70485Y57785
X40005Y32385
X37465Y55245
X36195Y43815
X42545Y33655
X30480Y69215
X17780Y24765
X30480Y49530
X73025Y67310
X66040Y41275
X60325Y37465
X23495Y46990
X59055Y69850
X23495Y22225
X23495Y28575
X59055Y12700
M30