G04 EAGLE Gerber RS-274X export*
G75*
%MOMM*%
%FSLAX34Y34*%
%LPD*%
%INBoard Outline*%
%IPPOS*%
%AMOC8*
5,1,8,0,0,1.08239X$1,22.5*%
G01*
%ADD10C,0.000000*%
%ADD11C,0.254000*%


D10*
X0Y0D02*
X850900Y0D01*
X850900Y939800D01*
X0Y939700D01*
X0Y0D01*
X295148Y158750D02*
X295153Y159143D01*
X295167Y159535D01*
X295191Y159927D01*
X295225Y160318D01*
X295268Y160709D01*
X295321Y161098D01*
X295384Y161486D01*
X295455Y161872D01*
X295537Y162256D01*
X295628Y162638D01*
X295728Y163018D01*
X295837Y163395D01*
X295956Y163770D01*
X296083Y164141D01*
X296220Y164509D01*
X296366Y164874D01*
X296521Y165235D01*
X296684Y165592D01*
X296857Y165945D01*
X297037Y166293D01*
X297227Y166637D01*
X297425Y166977D01*
X297631Y167311D01*
X297845Y167640D01*
X298067Y167964D01*
X298297Y168282D01*
X298535Y168595D01*
X298780Y168902D01*
X299033Y169202D01*
X299293Y169496D01*
X299561Y169784D01*
X299835Y170065D01*
X300116Y170339D01*
X300404Y170607D01*
X300698Y170867D01*
X300998Y171120D01*
X301305Y171365D01*
X301618Y171603D01*
X301936Y171833D01*
X302260Y172055D01*
X302589Y172269D01*
X302923Y172475D01*
X303263Y172673D01*
X303607Y172863D01*
X303955Y173043D01*
X304308Y173216D01*
X304665Y173379D01*
X305026Y173534D01*
X305391Y173680D01*
X305759Y173817D01*
X306130Y173944D01*
X306505Y174063D01*
X306882Y174172D01*
X307262Y174272D01*
X307644Y174363D01*
X308028Y174445D01*
X308414Y174516D01*
X308802Y174579D01*
X309191Y174632D01*
X309582Y174675D01*
X309973Y174709D01*
X310365Y174733D01*
X310757Y174747D01*
X311150Y174752D01*
X311543Y174747D01*
X311935Y174733D01*
X312327Y174709D01*
X312718Y174675D01*
X313109Y174632D01*
X313498Y174579D01*
X313886Y174516D01*
X314272Y174445D01*
X314656Y174363D01*
X315038Y174272D01*
X315418Y174172D01*
X315795Y174063D01*
X316170Y173944D01*
X316541Y173817D01*
X316909Y173680D01*
X317274Y173534D01*
X317635Y173379D01*
X317992Y173216D01*
X318345Y173043D01*
X318693Y172863D01*
X319037Y172673D01*
X319377Y172475D01*
X319711Y172269D01*
X320040Y172055D01*
X320364Y171833D01*
X320682Y171603D01*
X320995Y171365D01*
X321302Y171120D01*
X321602Y170867D01*
X321896Y170607D01*
X322184Y170339D01*
X322465Y170065D01*
X322739Y169784D01*
X323007Y169496D01*
X323267Y169202D01*
X323520Y168902D01*
X323765Y168595D01*
X324003Y168282D01*
X324233Y167964D01*
X324455Y167640D01*
X324669Y167311D01*
X324875Y166977D01*
X325073Y166637D01*
X325263Y166293D01*
X325443Y165945D01*
X325616Y165592D01*
X325779Y165235D01*
X325934Y164874D01*
X326080Y164509D01*
X326217Y164141D01*
X326344Y163770D01*
X326463Y163395D01*
X326572Y163018D01*
X326672Y162638D01*
X326763Y162256D01*
X326845Y161872D01*
X326916Y161486D01*
X326979Y161098D01*
X327032Y160709D01*
X327075Y160318D01*
X327109Y159927D01*
X327133Y159535D01*
X327147Y159143D01*
X327152Y158750D01*
X327147Y158357D01*
X327133Y157965D01*
X327109Y157573D01*
X327075Y157182D01*
X327032Y156791D01*
X326979Y156402D01*
X326916Y156014D01*
X326845Y155628D01*
X326763Y155244D01*
X326672Y154862D01*
X326572Y154482D01*
X326463Y154105D01*
X326344Y153730D01*
X326217Y153359D01*
X326080Y152991D01*
X325934Y152626D01*
X325779Y152265D01*
X325616Y151908D01*
X325443Y151555D01*
X325263Y151207D01*
X325073Y150863D01*
X324875Y150523D01*
X324669Y150189D01*
X324455Y149860D01*
X324233Y149536D01*
X324003Y149218D01*
X323765Y148905D01*
X323520Y148598D01*
X323267Y148298D01*
X323007Y148004D01*
X322739Y147716D01*
X322465Y147435D01*
X322184Y147161D01*
X321896Y146893D01*
X321602Y146633D01*
X321302Y146380D01*
X320995Y146135D01*
X320682Y145897D01*
X320364Y145667D01*
X320040Y145445D01*
X319711Y145231D01*
X319377Y145025D01*
X319037Y144827D01*
X318693Y144637D01*
X318345Y144457D01*
X317992Y144284D01*
X317635Y144121D01*
X317274Y143966D01*
X316909Y143820D01*
X316541Y143683D01*
X316170Y143556D01*
X315795Y143437D01*
X315418Y143328D01*
X315038Y143228D01*
X314656Y143137D01*
X314272Y143055D01*
X313886Y142984D01*
X313498Y142921D01*
X313109Y142868D01*
X312718Y142825D01*
X312327Y142791D01*
X311935Y142767D01*
X311543Y142753D01*
X311150Y142748D01*
X310757Y142753D01*
X310365Y142767D01*
X309973Y142791D01*
X309582Y142825D01*
X309191Y142868D01*
X308802Y142921D01*
X308414Y142984D01*
X308028Y143055D01*
X307644Y143137D01*
X307262Y143228D01*
X306882Y143328D01*
X306505Y143437D01*
X306130Y143556D01*
X305759Y143683D01*
X305391Y143820D01*
X305026Y143966D01*
X304665Y144121D01*
X304308Y144284D01*
X303955Y144457D01*
X303607Y144637D01*
X303263Y144827D01*
X302923Y145025D01*
X302589Y145231D01*
X302260Y145445D01*
X301936Y145667D01*
X301618Y145897D01*
X301305Y146135D01*
X300998Y146380D01*
X300698Y146633D01*
X300404Y146893D01*
X300116Y147161D01*
X299835Y147435D01*
X299561Y147716D01*
X299293Y148004D01*
X299033Y148298D01*
X298780Y148598D01*
X298535Y148905D01*
X298297Y149218D01*
X298067Y149536D01*
X297845Y149860D01*
X297631Y150189D01*
X297425Y150523D01*
X297227Y150863D01*
X297037Y151207D01*
X296857Y151555D01*
X296684Y151908D01*
X296521Y152265D01*
X296366Y152626D01*
X296220Y152991D01*
X296083Y153359D01*
X295956Y153730D01*
X295837Y154105D01*
X295728Y154482D01*
X295628Y154862D01*
X295537Y155244D01*
X295455Y155628D01*
X295384Y156014D01*
X295321Y156402D01*
X295268Y156791D01*
X295225Y157182D01*
X295191Y157573D01*
X295167Y157965D01*
X295153Y158357D01*
X295148Y158750D01*
X523748Y146050D02*
X523753Y146443D01*
X523767Y146835D01*
X523791Y147227D01*
X523825Y147618D01*
X523868Y148009D01*
X523921Y148398D01*
X523984Y148786D01*
X524055Y149172D01*
X524137Y149556D01*
X524228Y149938D01*
X524328Y150318D01*
X524437Y150695D01*
X524556Y151070D01*
X524683Y151441D01*
X524820Y151809D01*
X524966Y152174D01*
X525121Y152535D01*
X525284Y152892D01*
X525457Y153245D01*
X525637Y153593D01*
X525827Y153937D01*
X526025Y154277D01*
X526231Y154611D01*
X526445Y154940D01*
X526667Y155264D01*
X526897Y155582D01*
X527135Y155895D01*
X527380Y156202D01*
X527633Y156502D01*
X527893Y156796D01*
X528161Y157084D01*
X528435Y157365D01*
X528716Y157639D01*
X529004Y157907D01*
X529298Y158167D01*
X529598Y158420D01*
X529905Y158665D01*
X530218Y158903D01*
X530536Y159133D01*
X530860Y159355D01*
X531189Y159569D01*
X531523Y159775D01*
X531863Y159973D01*
X532207Y160163D01*
X532555Y160343D01*
X532908Y160516D01*
X533265Y160679D01*
X533626Y160834D01*
X533991Y160980D01*
X534359Y161117D01*
X534730Y161244D01*
X535105Y161363D01*
X535482Y161472D01*
X535862Y161572D01*
X536244Y161663D01*
X536628Y161745D01*
X537014Y161816D01*
X537402Y161879D01*
X537791Y161932D01*
X538182Y161975D01*
X538573Y162009D01*
X538965Y162033D01*
X539357Y162047D01*
X539750Y162052D01*
X540143Y162047D01*
X540535Y162033D01*
X540927Y162009D01*
X541318Y161975D01*
X541709Y161932D01*
X542098Y161879D01*
X542486Y161816D01*
X542872Y161745D01*
X543256Y161663D01*
X543638Y161572D01*
X544018Y161472D01*
X544395Y161363D01*
X544770Y161244D01*
X545141Y161117D01*
X545509Y160980D01*
X545874Y160834D01*
X546235Y160679D01*
X546592Y160516D01*
X546945Y160343D01*
X547293Y160163D01*
X547637Y159973D01*
X547977Y159775D01*
X548311Y159569D01*
X548640Y159355D01*
X548964Y159133D01*
X549282Y158903D01*
X549595Y158665D01*
X549902Y158420D01*
X550202Y158167D01*
X550496Y157907D01*
X550784Y157639D01*
X551065Y157365D01*
X551339Y157084D01*
X551607Y156796D01*
X551867Y156502D01*
X552120Y156202D01*
X552365Y155895D01*
X552603Y155582D01*
X552833Y155264D01*
X553055Y154940D01*
X553269Y154611D01*
X553475Y154277D01*
X553673Y153937D01*
X553863Y153593D01*
X554043Y153245D01*
X554216Y152892D01*
X554379Y152535D01*
X554534Y152174D01*
X554680Y151809D01*
X554817Y151441D01*
X554944Y151070D01*
X555063Y150695D01*
X555172Y150318D01*
X555272Y149938D01*
X555363Y149556D01*
X555445Y149172D01*
X555516Y148786D01*
X555579Y148398D01*
X555632Y148009D01*
X555675Y147618D01*
X555709Y147227D01*
X555733Y146835D01*
X555747Y146443D01*
X555752Y146050D01*
X555747Y145657D01*
X555733Y145265D01*
X555709Y144873D01*
X555675Y144482D01*
X555632Y144091D01*
X555579Y143702D01*
X555516Y143314D01*
X555445Y142928D01*
X555363Y142544D01*
X555272Y142162D01*
X555172Y141782D01*
X555063Y141405D01*
X554944Y141030D01*
X554817Y140659D01*
X554680Y140291D01*
X554534Y139926D01*
X554379Y139565D01*
X554216Y139208D01*
X554043Y138855D01*
X553863Y138507D01*
X553673Y138163D01*
X553475Y137823D01*
X553269Y137489D01*
X553055Y137160D01*
X552833Y136836D01*
X552603Y136518D01*
X552365Y136205D01*
X552120Y135898D01*
X551867Y135598D01*
X551607Y135304D01*
X551339Y135016D01*
X551065Y134735D01*
X550784Y134461D01*
X550496Y134193D01*
X550202Y133933D01*
X549902Y133680D01*
X549595Y133435D01*
X549282Y133197D01*
X548964Y132967D01*
X548640Y132745D01*
X548311Y132531D01*
X547977Y132325D01*
X547637Y132127D01*
X547293Y131937D01*
X546945Y131757D01*
X546592Y131584D01*
X546235Y131421D01*
X545874Y131266D01*
X545509Y131120D01*
X545141Y130983D01*
X544770Y130856D01*
X544395Y130737D01*
X544018Y130628D01*
X543638Y130528D01*
X543256Y130437D01*
X542872Y130355D01*
X542486Y130284D01*
X542098Y130221D01*
X541709Y130168D01*
X541318Y130125D01*
X540927Y130091D01*
X540535Y130067D01*
X540143Y130053D01*
X539750Y130048D01*
X539357Y130053D01*
X538965Y130067D01*
X538573Y130091D01*
X538182Y130125D01*
X537791Y130168D01*
X537402Y130221D01*
X537014Y130284D01*
X536628Y130355D01*
X536244Y130437D01*
X535862Y130528D01*
X535482Y130628D01*
X535105Y130737D01*
X534730Y130856D01*
X534359Y130983D01*
X533991Y131120D01*
X533626Y131266D01*
X533265Y131421D01*
X532908Y131584D01*
X532555Y131757D01*
X532207Y131937D01*
X531863Y132127D01*
X531523Y132325D01*
X531189Y132531D01*
X530860Y132745D01*
X530536Y132967D01*
X530218Y133197D01*
X529905Y133435D01*
X529598Y133680D01*
X529298Y133933D01*
X529004Y134193D01*
X528716Y134461D01*
X528435Y134735D01*
X528161Y135016D01*
X527893Y135304D01*
X527633Y135598D01*
X527380Y135898D01*
X527135Y136205D01*
X526897Y136518D01*
X526667Y136836D01*
X526445Y137160D01*
X526231Y137489D01*
X526025Y137823D01*
X525827Y138163D01*
X525637Y138507D01*
X525457Y138855D01*
X525284Y139208D01*
X525121Y139565D01*
X524966Y139926D01*
X524820Y140291D01*
X524683Y140659D01*
X524556Y141030D01*
X524437Y141405D01*
X524328Y141782D01*
X524228Y142162D01*
X524137Y142544D01*
X524055Y142928D01*
X523984Y143314D01*
X523921Y143702D01*
X523868Y144091D01*
X523825Y144482D01*
X523791Y144873D01*
X523767Y145265D01*
X523753Y145657D01*
X523748Y146050D01*
D11*
X0Y0D02*
X850900Y0D01*
X850900Y939800D01*
X0Y939700D01*
X0Y0D01*
X327152Y158226D02*
X327083Y157181D01*
X326947Y156142D01*
X326742Y155114D01*
X326471Y154102D01*
X326134Y153110D01*
X325733Y152142D01*
X325270Y151203D01*
X324746Y150295D01*
X324164Y149424D01*
X323526Y148593D01*
X322836Y147805D01*
X322095Y147064D01*
X321307Y146374D01*
X320476Y145736D01*
X319605Y145154D01*
X318697Y144630D01*
X317758Y144167D01*
X316790Y143766D01*
X315798Y143429D01*
X314786Y143158D01*
X313758Y142953D01*
X312719Y142817D01*
X311674Y142748D01*
X310626Y142748D01*
X309581Y142817D01*
X308542Y142953D01*
X307514Y143158D01*
X306502Y143429D01*
X305510Y143766D01*
X304542Y144167D01*
X303603Y144630D01*
X302695Y145154D01*
X301824Y145736D01*
X300993Y146374D01*
X300205Y147064D01*
X299464Y147805D01*
X298774Y148593D01*
X298136Y149424D01*
X297554Y150295D01*
X297030Y151203D01*
X296567Y152142D01*
X296166Y153110D01*
X295829Y154102D01*
X295558Y155114D01*
X295353Y156142D01*
X295217Y157181D01*
X295148Y158226D01*
X295148Y159274D01*
X295217Y160319D01*
X295353Y161358D01*
X295558Y162386D01*
X295829Y163398D01*
X296166Y164390D01*
X296567Y165358D01*
X297030Y166297D01*
X297554Y167205D01*
X298136Y168076D01*
X298774Y168907D01*
X299464Y169695D01*
X300205Y170436D01*
X300993Y171126D01*
X301824Y171764D01*
X302695Y172346D01*
X303603Y172870D01*
X304542Y173333D01*
X305510Y173734D01*
X306502Y174071D01*
X307514Y174342D01*
X308542Y174547D01*
X309581Y174683D01*
X310626Y174752D01*
X311674Y174752D01*
X312719Y174683D01*
X313758Y174547D01*
X314786Y174342D01*
X315798Y174071D01*
X316790Y173734D01*
X317758Y173333D01*
X318697Y172870D01*
X319605Y172346D01*
X320476Y171764D01*
X321307Y171126D01*
X322095Y170436D01*
X322836Y169695D01*
X323526Y168907D01*
X324164Y168076D01*
X324746Y167205D01*
X325270Y166297D01*
X325733Y165358D01*
X326134Y164390D01*
X326471Y163398D01*
X326742Y162386D01*
X326947Y161358D01*
X327083Y160319D01*
X327152Y159274D01*
X327152Y158226D01*
X555752Y145526D02*
X555683Y144481D01*
X555547Y143442D01*
X555342Y142414D01*
X555071Y141402D01*
X554734Y140410D01*
X554333Y139442D01*
X553870Y138503D01*
X553346Y137595D01*
X552764Y136724D01*
X552126Y135893D01*
X551436Y135105D01*
X550695Y134364D01*
X549907Y133674D01*
X549076Y133036D01*
X548205Y132454D01*
X547297Y131930D01*
X546358Y131467D01*
X545390Y131066D01*
X544398Y130729D01*
X543386Y130458D01*
X542358Y130253D01*
X541319Y130117D01*
X540274Y130048D01*
X539226Y130048D01*
X538181Y130117D01*
X537142Y130253D01*
X536114Y130458D01*
X535102Y130729D01*
X534110Y131066D01*
X533142Y131467D01*
X532203Y131930D01*
X531295Y132454D01*
X530424Y133036D01*
X529593Y133674D01*
X528805Y134364D01*
X528064Y135105D01*
X527374Y135893D01*
X526736Y136724D01*
X526154Y137595D01*
X525630Y138503D01*
X525167Y139442D01*
X524766Y140410D01*
X524429Y141402D01*
X524158Y142414D01*
X523953Y143442D01*
X523817Y144481D01*
X523748Y145526D01*
X523748Y146574D01*
X523817Y147619D01*
X523953Y148658D01*
X524158Y149686D01*
X524429Y150698D01*
X524766Y151690D01*
X525167Y152658D01*
X525630Y153597D01*
X526154Y154505D01*
X526736Y155376D01*
X527374Y156207D01*
X528064Y156995D01*
X528805Y157736D01*
X529593Y158426D01*
X530424Y159064D01*
X531295Y159646D01*
X532203Y160170D01*
X533142Y160633D01*
X534110Y161034D01*
X535102Y161371D01*
X536114Y161642D01*
X537142Y161847D01*
X538181Y161983D01*
X539226Y162052D01*
X540274Y162052D01*
X541319Y161983D01*
X542358Y161847D01*
X543386Y161642D01*
X544398Y161371D01*
X545390Y161034D01*
X546358Y160633D01*
X547297Y160170D01*
X548205Y159646D01*
X549076Y159064D01*
X549907Y158426D01*
X550695Y157736D01*
X551436Y156995D01*
X552126Y156207D01*
X552764Y155376D01*
X553346Y154505D01*
X553870Y153597D01*
X554333Y152658D01*
X554734Y151690D01*
X555071Y150698D01*
X555342Y149686D01*
X555547Y148658D01*
X555683Y147619D01*
X555752Y146574D01*
X555752Y145526D01*
M02*
