G04 EAGLE Gerber RS-274X export*
G75*
%MOMM*%
%FSLAX34Y34*%
%LPD*%
%INBottom Copper*%
%IPPOS*%
%AMOC8*
5,1,8,0,0,1.08239X$1,22.5*%
G01*
%ADD10P,1.732040X8X112.500000*%
%ADD11C,1.600200*%
%ADD12P,1.732040X8X292.500000*%
%ADD13P,1.539592X8X22.500000*%
%ADD14C,1.320800*%
%ADD15P,1.429621X8X22.500000*%
%ADD16C,1.208000*%
%ADD17P,1.429621X8X202.500000*%
%ADD18P,1.732040X8X22.500000*%
%ADD19P,1.732040X8X202.500000*%
%ADD20P,1.429621X8X292.500000*%
%ADD21P,1.429621X8X112.500000*%
%ADD22C,1.524000*%
%ADD23C,0.609600*%
%ADD24C,0.756400*%
%ADD25C,0.406400*%


D10*
X571500Y82550D03*
D11*
X571500Y57150D03*
D12*
X273050Y57150D03*
D11*
X273050Y82550D03*
D13*
X374650Y57150D03*
X374650Y82550D03*
X400050Y57150D03*
X400050Y82550D03*
X425450Y57150D03*
X425450Y82550D03*
X450850Y57150D03*
X450850Y82550D03*
X476250Y57150D03*
X476250Y82550D03*
D14*
X628396Y209550D02*
X641604Y209550D01*
X641604Y234950D02*
X628396Y234950D01*
X628396Y260350D02*
X641604Y260350D01*
X641604Y285750D02*
X628396Y285750D01*
X628396Y311150D02*
X641604Y311150D01*
X641604Y336550D02*
X628396Y336550D01*
X628396Y361950D02*
X641604Y361950D01*
X641604Y387350D02*
X628396Y387350D01*
X565404Y387350D02*
X552196Y387350D01*
X552196Y361950D02*
X565404Y361950D01*
X565404Y336550D02*
X552196Y336550D01*
X552196Y311150D02*
X565404Y311150D01*
X565404Y285750D02*
X552196Y285750D01*
X552196Y260350D02*
X565404Y260350D01*
X565404Y234950D02*
X552196Y234950D01*
X552196Y209550D02*
X565404Y209550D01*
X286004Y488950D02*
X272796Y488950D01*
X272796Y514350D02*
X286004Y514350D01*
X286004Y641350D02*
X272796Y641350D01*
X272796Y666750D02*
X286004Y666750D01*
X286004Y539750D02*
X272796Y539750D01*
X272796Y565150D02*
X286004Y565150D01*
X286004Y615950D02*
X272796Y615950D01*
X272796Y590550D02*
X286004Y590550D01*
X209804Y666750D02*
X196596Y666750D01*
X196596Y641350D02*
X209804Y641350D01*
X209804Y615950D02*
X196596Y615950D01*
X196596Y590550D02*
X209804Y590550D01*
X209804Y565150D02*
X196596Y565150D01*
X196596Y539750D02*
X209804Y539750D01*
X209804Y514350D02*
X196596Y514350D01*
X196596Y488950D02*
X209804Y488950D01*
X272796Y209550D02*
X286004Y209550D01*
X286004Y234950D02*
X272796Y234950D01*
X272796Y361950D02*
X286004Y361950D01*
X286004Y387350D02*
X272796Y387350D01*
X272796Y260350D02*
X286004Y260350D01*
X286004Y285750D02*
X272796Y285750D01*
X272796Y336550D02*
X286004Y336550D01*
X286004Y311150D02*
X272796Y311150D01*
X209804Y387350D02*
X196596Y387350D01*
X196596Y361950D02*
X209804Y361950D01*
X209804Y336550D02*
X196596Y336550D01*
X196596Y311150D02*
X209804Y311150D01*
X209804Y285750D02*
X196596Y285750D01*
X196596Y260350D02*
X209804Y260350D01*
X209804Y234950D02*
X196596Y234950D01*
X196596Y209550D02*
X209804Y209550D01*
X628396Y609600D02*
X641604Y609600D01*
X641604Y635000D02*
X628396Y635000D01*
X628396Y660400D02*
X641604Y660400D01*
X641604Y685800D02*
X628396Y685800D01*
X628396Y711200D02*
X641604Y711200D01*
X641604Y736600D02*
X628396Y736600D01*
X628396Y762000D02*
X641604Y762000D01*
X641604Y787400D02*
X628396Y787400D01*
X565404Y787400D02*
X552196Y787400D01*
X552196Y762000D02*
X565404Y762000D01*
X565404Y736600D02*
X552196Y736600D01*
X552196Y711200D02*
X565404Y711200D01*
X565404Y685800D02*
X552196Y685800D01*
X552196Y660400D02*
X565404Y660400D01*
X565404Y635000D02*
X552196Y635000D01*
X552196Y609600D02*
X565404Y609600D01*
X286004Y723900D02*
X272796Y723900D01*
X272796Y749300D02*
X286004Y749300D01*
X286004Y774700D02*
X272796Y774700D01*
X272796Y800100D02*
X286004Y800100D01*
X286004Y825500D02*
X272796Y825500D01*
X272796Y850900D02*
X286004Y850900D01*
X286004Y876300D02*
X272796Y876300D01*
X272796Y901700D02*
X286004Y901700D01*
X209804Y901700D02*
X196596Y901700D01*
X196596Y876300D02*
X209804Y876300D01*
X209804Y850900D02*
X196596Y850900D01*
X196596Y825500D02*
X209804Y825500D01*
X209804Y800100D02*
X196596Y800100D01*
X196596Y774700D02*
X209804Y774700D01*
X209804Y749300D02*
X196596Y749300D01*
X196596Y723900D02*
X209804Y723900D01*
X710946Y412750D02*
X724154Y412750D01*
X724154Y463550D02*
X710946Y463550D01*
X710946Y438150D02*
X724154Y438150D01*
D15*
X679450Y488950D03*
X755650Y488950D03*
D16*
X641040Y463550D02*
X628960Y463550D01*
X628960Y488950D02*
X641040Y488950D01*
X641040Y514350D02*
X628960Y514350D01*
X628960Y539750D02*
X641040Y539750D01*
X564840Y539750D02*
X552760Y539750D01*
X552760Y514350D02*
X564840Y514350D01*
X564840Y488950D02*
X552760Y488950D01*
X552760Y463550D02*
X564840Y463550D01*
D17*
X755650Y565150D03*
X679450Y565150D03*
X755650Y514350D03*
X679450Y514350D03*
D15*
X679450Y539750D03*
X755650Y539750D03*
X679450Y660400D03*
X755650Y660400D03*
D17*
X755650Y635000D03*
X679450Y635000D03*
D15*
X692150Y762000D03*
X742950Y762000D03*
X692150Y609600D03*
X742950Y609600D03*
X679450Y711200D03*
X755650Y711200D03*
D14*
X578104Y819150D02*
X564896Y819150D01*
X564896Y869950D02*
X578104Y869950D01*
X578104Y844550D02*
X564896Y844550D01*
X615696Y819150D02*
X628904Y819150D01*
X628904Y869950D02*
X615696Y869950D01*
X615696Y844550D02*
X628904Y844550D01*
D17*
X755650Y685800D03*
X679450Y685800D03*
D18*
X730250Y869950D03*
D11*
X704850Y869950D03*
D15*
X679450Y787400D03*
X755650Y787400D03*
X438150Y660400D03*
X514350Y660400D03*
D17*
X514350Y685800D03*
X438150Y685800D03*
X501650Y711200D03*
X450850Y711200D03*
D15*
X438150Y787400D03*
X514350Y787400D03*
D17*
X755650Y812800D03*
X679450Y812800D03*
D15*
X679450Y311150D03*
X755650Y311150D03*
D14*
X692150Y159004D02*
X692150Y145796D01*
X742950Y145796D02*
X742950Y159004D01*
X717550Y159004D02*
X717550Y145796D01*
D17*
X755650Y184150D03*
X679450Y184150D03*
X755650Y285750D03*
X679450Y285750D03*
X755650Y260350D03*
X679450Y260350D03*
X755650Y234950D03*
X679450Y234950D03*
D15*
X692150Y209550D03*
X742950Y209550D03*
X692150Y361950D03*
X742950Y361950D03*
X679450Y387350D03*
X755650Y387350D03*
D14*
X406654Y774700D02*
X393446Y774700D01*
X330454Y774700D02*
X317246Y774700D01*
X317246Y749300D02*
X330454Y749300D01*
X393446Y749300D02*
X406654Y749300D01*
D17*
X387350Y876300D03*
X336550Y876300D03*
D14*
X336550Y717804D02*
X336550Y704596D01*
X387350Y704596D02*
X387350Y717804D01*
X361950Y717804D02*
X361950Y704596D01*
D15*
X323850Y800100D03*
X400050Y800100D03*
D17*
X400050Y825500D03*
X323850Y825500D03*
D15*
X323850Y901700D03*
X400050Y901700D03*
X450850Y812800D03*
X501650Y812800D03*
X438150Y590550D03*
X514350Y590550D03*
D14*
X95250Y710946D02*
X95250Y724154D01*
X146050Y724154D02*
X146050Y710946D01*
X120650Y710946D02*
X120650Y724154D01*
D17*
X400050Y514350D03*
X323850Y514350D03*
X158750Y800100D03*
X82550Y800100D03*
X158750Y774700D03*
X82550Y774700D03*
X158750Y749300D03*
X82550Y749300D03*
D19*
X107950Y654050D03*
D11*
X133350Y654050D03*
D17*
X158750Y825500D03*
X82550Y825500D03*
X158750Y901700D03*
X82550Y901700D03*
D10*
X44450Y889000D03*
D11*
X44450Y863600D03*
D17*
X514350Y565150D03*
X438150Y565150D03*
X514350Y539750D03*
X438150Y539750D03*
X514350Y514350D03*
X438150Y514350D03*
X514350Y488950D03*
X438150Y488950D03*
D15*
X336550Y311150D03*
X387350Y311150D03*
X323850Y260350D03*
X400050Y260350D03*
D17*
X387350Y184150D03*
X336550Y184150D03*
D15*
X323850Y234950D03*
X400050Y234950D03*
D17*
X400050Y209550D03*
X323850Y209550D03*
D19*
X120650Y361950D03*
D11*
X146050Y361950D03*
D15*
X323850Y361950D03*
X400050Y361950D03*
D14*
X387350Y387096D02*
X387350Y400304D01*
X336550Y400304D02*
X336550Y387096D01*
X361950Y387096D02*
X361950Y400304D01*
D15*
X323850Y463550D03*
X400050Y463550D03*
D14*
X437896Y184150D02*
X451104Y184150D01*
X451104Y234950D02*
X437896Y234950D01*
X437896Y209550D02*
X451104Y209550D01*
D17*
X279400Y450850D03*
X203200Y450850D03*
D14*
X317246Y539750D02*
X330454Y539750D01*
X393446Y539750D02*
X406654Y539750D01*
D15*
X323850Y590550D03*
X400050Y590550D03*
D17*
X387350Y565150D03*
X336550Y565150D03*
X514350Y285750D03*
X438150Y285750D03*
D15*
X336550Y615950D03*
X387350Y615950D03*
D17*
X514350Y260350D03*
X438150Y260350D03*
D15*
X450850Y311150D03*
X501650Y311150D03*
D17*
X514350Y361950D03*
X438150Y361950D03*
X514350Y387350D03*
X438150Y387350D03*
D18*
X488950Y431800D03*
D11*
X463550Y431800D03*
D14*
X501396Y234950D02*
X514604Y234950D01*
X514604Y184150D02*
X501396Y184150D01*
X501396Y209550D02*
X514604Y209550D01*
D15*
X558800Y177800D03*
X635000Y177800D03*
D14*
X95250Y571246D02*
X95250Y584454D01*
X146050Y584454D02*
X146050Y571246D01*
X120650Y571246D02*
X120650Y584454D01*
X679196Y101600D02*
X692404Y101600D01*
X692404Y50800D02*
X679196Y50800D01*
X679196Y76200D02*
X692404Y76200D01*
D17*
X158750Y615950D03*
X82550Y615950D03*
D20*
X800100Y107950D03*
X800100Y31750D03*
X749300Y107950D03*
X749300Y31750D03*
D21*
X723900Y31750D03*
X723900Y107950D03*
D20*
X774700Y107950D03*
X774700Y31750D03*
D17*
X501650Y336550D03*
X450850Y336550D03*
X146050Y850900D03*
X95250Y850900D03*
X501650Y736600D03*
X450850Y736600D03*
D15*
X692150Y736600D03*
X742950Y736600D03*
X336550Y850900D03*
X387350Y850900D03*
X692150Y336550D03*
X742950Y336550D03*
X336550Y285750D03*
X387350Y285750D03*
D17*
X146050Y488950D03*
X95250Y488950D03*
D15*
X336550Y666750D03*
X387350Y666750D03*
D17*
X622300Y571500D03*
X571500Y571500D03*
D15*
X571500Y431800D03*
X622300Y431800D03*
D22*
X817880Y622300D02*
X833120Y622300D01*
X833120Y647700D02*
X817880Y647700D01*
X817880Y673100D02*
X833120Y673100D01*
X833120Y698500D02*
X817880Y698500D01*
X33020Y730250D02*
X17780Y730250D01*
X17780Y755650D02*
X33020Y755650D01*
X33020Y781050D02*
X17780Y781050D01*
X17780Y806450D02*
X33020Y806450D01*
X817880Y520700D02*
X833120Y520700D01*
X833120Y546100D02*
X817880Y546100D01*
X817880Y571500D02*
X833120Y571500D01*
X833120Y419100D02*
X817880Y419100D01*
X817880Y444500D02*
X833120Y444500D01*
X833120Y469900D02*
X817880Y469900D01*
X817880Y368300D02*
X833120Y368300D01*
X833120Y342900D02*
X817880Y342900D01*
X817880Y317500D02*
X833120Y317500D01*
X33020Y685800D02*
X17780Y685800D01*
X17780Y660400D02*
X33020Y660400D01*
X33020Y635000D02*
X17780Y635000D01*
X17780Y609600D02*
X33020Y609600D01*
X33020Y584200D02*
X17780Y584200D01*
D23*
X146050Y850900D02*
X203200Y850900D01*
X577850Y736600D02*
X590550Y723900D01*
X577850Y736600D02*
X558800Y736600D01*
X590550Y336550D02*
X590550Y127000D01*
D24*
X590550Y127000D03*
D23*
X590550Y336550D02*
X590550Y431800D01*
X590550Y463550D01*
X590550Y698500D01*
X590550Y723900D01*
X590550Y431800D02*
X571500Y431800D01*
X558800Y463550D02*
X590550Y463550D01*
X374650Y82550D02*
X374650Y57150D01*
X374650Y82550D02*
X273050Y82550D01*
X234950Y838200D02*
X222250Y850900D01*
X203200Y850900D01*
X234950Y222250D02*
X234950Y120650D01*
X234950Y222250D02*
X234950Y285750D01*
X234950Y469900D01*
X234950Y488950D01*
X234950Y539750D01*
X234950Y666750D01*
X234950Y838200D01*
X234950Y666750D02*
X203200Y666750D01*
X203200Y539750D02*
X234950Y539750D01*
X234950Y488950D02*
X203200Y488950D01*
X234950Y120650D02*
X273050Y82550D01*
D24*
X234950Y285750D03*
D23*
X558800Y336550D02*
X590550Y336550D01*
D24*
X234950Y222250D03*
X590550Y698500D03*
X234950Y469900D03*
D23*
X476250Y82550D02*
X476250Y57150D01*
X476250Y82550D02*
X571500Y82550D01*
X603250Y82550D01*
X603250Y336550D01*
X603250Y374650D01*
X603250Y539750D01*
X603250Y571500D01*
X603250Y723900D01*
X615950Y736600D01*
X635000Y736600D01*
X635000Y336550D02*
X603250Y336550D01*
X603250Y539750D02*
X635000Y539750D01*
X622300Y571500D02*
X603250Y571500D01*
X444500Y184150D02*
X444500Y127000D01*
X476250Y95250D02*
X476250Y82550D01*
X476250Y95250D02*
X444500Y127000D01*
X279400Y127000D01*
X247650Y158750D01*
X247650Y666750D01*
X279400Y666750D01*
X247650Y666750D02*
X247650Y850900D01*
X279400Y850900D01*
X336550Y850900D01*
X438150Y514350D02*
X425450Y501650D01*
X425450Y400050D01*
X438150Y387350D01*
X228600Y889000D02*
X95250Y889000D01*
X228600Y889000D02*
X247650Y869950D01*
X247650Y850900D01*
X95250Y889000D02*
X82550Y901700D01*
X425450Y800100D02*
X438150Y787400D01*
X425450Y800100D02*
X425450Y889000D01*
X412750Y901700D01*
X400050Y901700D01*
X387350Y901700D02*
X336550Y850900D01*
X387350Y901700D02*
X400050Y901700D01*
X730250Y812800D02*
X755650Y812800D01*
X730250Y812800D02*
X717550Y800100D01*
X717550Y749300D01*
X704850Y736600D01*
X692150Y736600D01*
D24*
X603250Y374650D03*
D23*
X641350Y101600D02*
X685800Y101600D01*
X641350Y101600D02*
X622300Y82550D01*
X603250Y82550D01*
D25*
X660400Y412750D02*
X660400Y584200D01*
X635000Y609600D01*
D24*
X660400Y412750D03*
D25*
X622300Y869950D02*
X704850Y869950D01*
X730250Y844550D01*
X755650Y844550D01*
X768350Y831850D01*
X768350Y698500D01*
X755650Y685800D01*
X679450Y685800D02*
X679450Y711200D01*
X698500Y615950D02*
X692150Y609600D01*
X698500Y615950D02*
X698500Y666750D01*
X679450Y685800D01*
X679450Y711200D02*
X660400Y730250D01*
X660400Y819150D01*
X647700Y831850D01*
X603250Y831850D01*
X590550Y819150D01*
X571500Y819150D01*
X730250Y774700D02*
X730250Y673100D01*
X730250Y774700D02*
X742950Y787400D01*
X755650Y787400D01*
D24*
X730250Y673100D03*
D25*
X635000Y209550D02*
X660400Y184150D01*
X660400Y165100D01*
X673100Y152400D01*
X692150Y152400D01*
X692150Y361950D02*
X692150Y374650D01*
X679450Y387350D01*
X323850Y749300D02*
X323850Y774700D01*
X368300Y800100D02*
X368300Y857250D01*
X387350Y876300D01*
X342900Y774700D02*
X323850Y774700D01*
X342900Y774700D02*
X368300Y800100D01*
X419100Y609600D02*
X438150Y590550D01*
X419100Y698500D02*
X406400Y711200D01*
X387350Y711200D01*
X419100Y698500D02*
X419100Y609600D01*
X292100Y209550D02*
X279400Y209550D01*
X292100Y209550D02*
X304800Y222250D01*
X304800Y495300D01*
D24*
X304800Y495300D03*
D25*
X146050Y654050D02*
X133350Y654050D01*
X146050Y654050D02*
X177800Y622300D01*
X177800Y247650D01*
D24*
X177800Y247650D03*
D25*
X107950Y762000D02*
X95250Y774700D01*
X82550Y774700D01*
X107950Y762000D02*
X107950Y654050D01*
X158750Y749300D02*
X158750Y774700D01*
X304800Y520700D02*
X311150Y514350D01*
X323850Y514350D01*
X304800Y520700D02*
X304800Y692150D01*
D24*
X304800Y692150D03*
D25*
X361950Y438150D02*
X361950Y393700D01*
X431800Y234950D02*
X444500Y234950D01*
X431800Y234950D02*
X425450Y241300D01*
X425450Y336550D01*
D24*
X425450Y336550D03*
X361950Y438150D03*
D25*
X374650Y349250D02*
X400050Y323850D01*
X374650Y349250D02*
X374650Y552450D01*
D24*
X374650Y552450D03*
X400050Y323850D03*
D25*
X323850Y539750D02*
X323850Y565150D01*
X323850Y590550D01*
X323850Y565150D02*
X336550Y565150D01*
X685800Y50800D02*
X781050Y50800D01*
X800100Y31750D01*
X120650Y463550D02*
X63500Y406400D01*
X63500Y107950D02*
X146050Y25400D01*
X660400Y25400D01*
X685800Y50800D01*
X120650Y463550D02*
X120650Y577850D01*
X63500Y406400D02*
X63500Y107950D01*
X787400Y165100D02*
X787400Y425450D01*
X787400Y165100D02*
X749300Y127000D01*
X749300Y107950D01*
X806450Y444500D02*
X825500Y444500D01*
X806450Y444500D02*
X787400Y425450D01*
X704850Y482600D02*
X704850Y577850D01*
X704850Y482600D02*
X692150Y469900D01*
X692150Y406400D01*
X704850Y393700D01*
X679450Y215900D02*
X679450Y184150D01*
X704850Y241300D02*
X704850Y393700D01*
X704850Y241300D02*
X679450Y215900D01*
D24*
X704850Y577850D03*
D25*
X647700Y685800D02*
X635000Y685800D01*
X647700Y685800D02*
X660400Y673100D01*
X660400Y622300D02*
X673100Y609600D01*
X673100Y590550D01*
D24*
X673100Y590550D03*
D25*
X660400Y622300D02*
X660400Y673100D01*
X736600Y476250D02*
X736600Y400050D01*
X730250Y393700D01*
X730250Y247650D01*
X692150Y209550D01*
X742950Y647700D02*
X825500Y647700D01*
X742950Y647700D02*
X730250Y635000D01*
X730250Y482600D01*
X736600Y476250D01*
X800100Y469900D02*
X825500Y469900D01*
X800100Y469900D02*
X774700Y444500D01*
D24*
X774700Y196850D03*
D25*
X774700Y444500D01*
X812800Y419100D02*
X825500Y419100D01*
X812800Y419100D02*
X800100Y406400D01*
X800100Y152400D01*
X774700Y127000D01*
X774700Y107950D01*
D24*
X304800Y812800D03*
D25*
X304800Y711200D01*
X336550Y679450D01*
X400050Y679450D01*
D24*
X400050Y679450D03*
X495300Y635000D03*
D25*
X495300Y584200D01*
X514350Y565150D01*
X514350Y590550D02*
X514350Y635000D01*
D24*
X514350Y635000D03*
X355600Y628650D03*
D25*
X355600Y590550D01*
X368300Y577850D01*
X400050Y577850D01*
X438150Y539750D01*
D24*
X533400Y603250D03*
D25*
X533400Y412750D01*
D24*
X533400Y412750D03*
D25*
X50800Y844550D02*
X44450Y850900D01*
X50800Y844550D02*
X50800Y692150D01*
X44450Y685800D01*
X25400Y685800D01*
X44450Y850900D02*
X44450Y863600D01*
X50800Y635000D02*
X25400Y635000D01*
X50800Y635000D02*
X63500Y622300D01*
X63500Y450850D01*
D24*
X63500Y450850D03*
D25*
X425450Y209550D02*
X444500Y209550D01*
X425450Y209550D02*
X412750Y222250D01*
X412750Y476250D01*
D24*
X412750Y476250D03*
M02*
