G04 EAGLE Gerber RS-274X export*
G75*
%MOMM*%
%FSLAX34Y34*%
%LPD*%
%IN*%
%IPPOS*%
%AMOC8*
5,1,8,0,0,1.08239X$1,22.5*%
G01*
%ADD10C,0.254000*%


D10*
X0Y0D02*
X850900Y0D01*
X850900Y939800D01*
X0Y939700D01*
X0Y0D01*
X327152Y158226D02*
X327083Y157181D01*
X326947Y156142D01*
X326742Y155114D01*
X326471Y154102D01*
X326134Y153110D01*
X325733Y152142D01*
X325270Y151203D01*
X324746Y150295D01*
X324164Y149424D01*
X323526Y148593D01*
X322836Y147805D01*
X322095Y147064D01*
X321307Y146374D01*
X320476Y145736D01*
X319605Y145154D01*
X318697Y144630D01*
X317758Y144167D01*
X316790Y143766D01*
X315798Y143429D01*
X314786Y143158D01*
X313758Y142953D01*
X312719Y142817D01*
X311674Y142748D01*
X310626Y142748D01*
X309581Y142817D01*
X308542Y142953D01*
X307514Y143158D01*
X306502Y143429D01*
X305510Y143766D01*
X304542Y144167D01*
X303603Y144630D01*
X302695Y145154D01*
X301824Y145736D01*
X300993Y146374D01*
X300205Y147064D01*
X299464Y147805D01*
X298774Y148593D01*
X298136Y149424D01*
X297554Y150295D01*
X297030Y151203D01*
X296567Y152142D01*
X296166Y153110D01*
X295829Y154102D01*
X295558Y155114D01*
X295353Y156142D01*
X295217Y157181D01*
X295148Y158226D01*
X295148Y159274D01*
X295217Y160319D01*
X295353Y161358D01*
X295558Y162386D01*
X295829Y163398D01*
X296166Y164390D01*
X296567Y165358D01*
X297030Y166297D01*
X297554Y167205D01*
X298136Y168076D01*
X298774Y168907D01*
X299464Y169695D01*
X300205Y170436D01*
X300993Y171126D01*
X301824Y171764D01*
X302695Y172346D01*
X303603Y172870D01*
X304542Y173333D01*
X305510Y173734D01*
X306502Y174071D01*
X307514Y174342D01*
X308542Y174547D01*
X309581Y174683D01*
X310626Y174752D01*
X311674Y174752D01*
X312719Y174683D01*
X313758Y174547D01*
X314786Y174342D01*
X315798Y174071D01*
X316790Y173734D01*
X317758Y173333D01*
X318697Y172870D01*
X319605Y172346D01*
X320476Y171764D01*
X321307Y171126D01*
X322095Y170436D01*
X322836Y169695D01*
X323526Y168907D01*
X324164Y168076D01*
X324746Y167205D01*
X325270Y166297D01*
X325733Y165358D01*
X326134Y164390D01*
X326471Y163398D01*
X326742Y162386D01*
X326947Y161358D01*
X327083Y160319D01*
X327152Y159274D01*
X327152Y158226D01*
X555752Y145526D02*
X555683Y144481D01*
X555547Y143442D01*
X555342Y142414D01*
X555071Y141402D01*
X554734Y140410D01*
X554333Y139442D01*
X553870Y138503D01*
X553346Y137595D01*
X552764Y136724D01*
X552126Y135893D01*
X551436Y135105D01*
X550695Y134364D01*
X549907Y133674D01*
X549076Y133036D01*
X548205Y132454D01*
X547297Y131930D01*
X546358Y131467D01*
X545390Y131066D01*
X544398Y130729D01*
X543386Y130458D01*
X542358Y130253D01*
X541319Y130117D01*
X540274Y130048D01*
X539226Y130048D01*
X538181Y130117D01*
X537142Y130253D01*
X536114Y130458D01*
X535102Y130729D01*
X534110Y131066D01*
X533142Y131467D01*
X532203Y131930D01*
X531295Y132454D01*
X530424Y133036D01*
X529593Y133674D01*
X528805Y134364D01*
X528064Y135105D01*
X527374Y135893D01*
X526736Y136724D01*
X526154Y137595D01*
X525630Y138503D01*
X525167Y139442D01*
X524766Y140410D01*
X524429Y141402D01*
X524158Y142414D01*
X523953Y143442D01*
X523817Y144481D01*
X523748Y145526D01*
X523748Y146574D01*
X523817Y147619D01*
X523953Y148658D01*
X524158Y149686D01*
X524429Y150698D01*
X524766Y151690D01*
X525167Y152658D01*
X525630Y153597D01*
X526154Y154505D01*
X526736Y155376D01*
X527374Y156207D01*
X528064Y156995D01*
X528805Y157736D01*
X529593Y158426D01*
X530424Y159064D01*
X531295Y159646D01*
X532203Y160170D01*
X533142Y160633D01*
X534110Y161034D01*
X535102Y161371D01*
X536114Y161642D01*
X537142Y161847D01*
X538181Y161983D01*
X539226Y162052D01*
X540274Y162052D01*
X541319Y161983D01*
X542358Y161847D01*
X543386Y161642D01*
X544398Y161371D01*
X545390Y161034D01*
X546358Y160633D01*
X547297Y160170D01*
X548205Y159646D01*
X549076Y159064D01*
X549907Y158426D01*
X550695Y157736D01*
X551436Y156995D01*
X552126Y156207D01*
X552764Y155376D01*
X553346Y154505D01*
X553870Y153597D01*
X554333Y152658D01*
X554734Y151690D01*
X555071Y150698D01*
X555342Y149686D01*
X555547Y148658D01*
X555683Y147619D01*
X555752Y146574D01*
X555752Y145526D01*
M02*
