G04 EAGLE Gerber RS-274X export*
G75*
%MOMM*%
%FSLAX34Y34*%
%LPD*%
%INSilkscreen Bottom*%
%IPPOS*%
%AMOC8*
5,1,8,0,0,1.08239X$1,22.5*%
G01*
%ADD10C,0.152400*%
%ADD11C,0.101600*%


D10*
X732790Y38100D02*
X732890Y38102D01*
X732989Y38108D01*
X733089Y38118D01*
X733187Y38131D01*
X733286Y38149D01*
X733383Y38170D01*
X733479Y38195D01*
X733575Y38224D01*
X733669Y38257D01*
X733762Y38293D01*
X733853Y38333D01*
X733943Y38377D01*
X734031Y38424D01*
X734117Y38474D01*
X734201Y38528D01*
X734283Y38585D01*
X734362Y38645D01*
X734440Y38709D01*
X734514Y38775D01*
X734586Y38844D01*
X734655Y38916D01*
X734721Y38990D01*
X734785Y39068D01*
X734845Y39147D01*
X734902Y39229D01*
X734956Y39313D01*
X735006Y39399D01*
X735053Y39487D01*
X735097Y39577D01*
X735137Y39668D01*
X735173Y39761D01*
X735206Y39855D01*
X735235Y39951D01*
X735260Y40047D01*
X735281Y40144D01*
X735299Y40243D01*
X735312Y40341D01*
X735322Y40441D01*
X735328Y40540D01*
X735330Y40640D01*
X715010Y38100D02*
X714910Y38102D01*
X714811Y38108D01*
X714711Y38118D01*
X714613Y38131D01*
X714514Y38149D01*
X714417Y38170D01*
X714321Y38195D01*
X714225Y38224D01*
X714131Y38257D01*
X714038Y38293D01*
X713947Y38333D01*
X713857Y38377D01*
X713769Y38424D01*
X713683Y38474D01*
X713599Y38528D01*
X713517Y38585D01*
X713438Y38645D01*
X713360Y38709D01*
X713286Y38775D01*
X713214Y38844D01*
X713145Y38916D01*
X713079Y38990D01*
X713015Y39068D01*
X712955Y39147D01*
X712898Y39229D01*
X712844Y39313D01*
X712794Y39399D01*
X712747Y39487D01*
X712703Y39577D01*
X712663Y39668D01*
X712627Y39761D01*
X712594Y39855D01*
X712565Y39951D01*
X712540Y40047D01*
X712519Y40144D01*
X712501Y40243D01*
X712488Y40341D01*
X712478Y40441D01*
X712472Y40540D01*
X712470Y40640D01*
X712470Y99060D02*
X712472Y99160D01*
X712478Y99259D01*
X712488Y99359D01*
X712501Y99457D01*
X712519Y99556D01*
X712540Y99653D01*
X712565Y99749D01*
X712594Y99845D01*
X712627Y99939D01*
X712663Y100032D01*
X712703Y100123D01*
X712747Y100213D01*
X712794Y100301D01*
X712844Y100387D01*
X712898Y100471D01*
X712955Y100553D01*
X713015Y100632D01*
X713079Y100710D01*
X713145Y100784D01*
X713214Y100856D01*
X713286Y100925D01*
X713360Y100991D01*
X713438Y101055D01*
X713517Y101115D01*
X713599Y101172D01*
X713683Y101226D01*
X713769Y101276D01*
X713857Y101323D01*
X713947Y101367D01*
X714038Y101407D01*
X714131Y101443D01*
X714225Y101476D01*
X714321Y101505D01*
X714417Y101530D01*
X714514Y101551D01*
X714613Y101569D01*
X714711Y101582D01*
X714811Y101592D01*
X714910Y101598D01*
X715010Y101600D01*
X732790Y101600D02*
X732890Y101598D01*
X732989Y101592D01*
X733089Y101582D01*
X733187Y101569D01*
X733286Y101551D01*
X733383Y101530D01*
X733479Y101505D01*
X733575Y101476D01*
X733669Y101443D01*
X733762Y101407D01*
X733853Y101367D01*
X733943Y101323D01*
X734031Y101276D01*
X734117Y101226D01*
X734201Y101172D01*
X734283Y101115D01*
X734362Y101055D01*
X734440Y100991D01*
X734514Y100925D01*
X734586Y100856D01*
X734655Y100784D01*
X734721Y100710D01*
X734785Y100632D01*
X734845Y100553D01*
X734902Y100471D01*
X734956Y100387D01*
X735006Y100301D01*
X735053Y100213D01*
X735097Y100123D01*
X735137Y100032D01*
X735173Y99939D01*
X735206Y99845D01*
X735235Y99749D01*
X735260Y99653D01*
X735281Y99556D01*
X735299Y99457D01*
X735312Y99359D01*
X735322Y99259D01*
X735328Y99160D01*
X735330Y99060D01*
X735330Y44450D02*
X735330Y40640D01*
X735330Y44450D02*
X734060Y45720D01*
X712470Y44450D02*
X712470Y40640D01*
X712470Y44450D02*
X713740Y45720D01*
X734060Y93980D02*
X735330Y95250D01*
X734060Y93980D02*
X734060Y45720D01*
X713740Y93980D02*
X712470Y95250D01*
X713740Y93980D02*
X713740Y45720D01*
X735330Y95250D02*
X735330Y99060D01*
X712470Y99060D02*
X712470Y95250D01*
D11*
X718058Y44958D02*
X729742Y44958D01*
X729742Y48204D01*
X729740Y48317D01*
X729734Y48430D01*
X729724Y48543D01*
X729710Y48656D01*
X729693Y48768D01*
X729671Y48879D01*
X729646Y48989D01*
X729616Y49099D01*
X729583Y49207D01*
X729546Y49314D01*
X729506Y49420D01*
X729461Y49524D01*
X729413Y49627D01*
X729362Y49728D01*
X729307Y49827D01*
X729249Y49924D01*
X729187Y50019D01*
X729122Y50112D01*
X729054Y50202D01*
X728983Y50290D01*
X728908Y50376D01*
X728831Y50459D01*
X728751Y50539D01*
X728668Y50616D01*
X728582Y50691D01*
X728494Y50762D01*
X728404Y50830D01*
X728311Y50895D01*
X728216Y50957D01*
X728119Y51015D01*
X728020Y51070D01*
X727919Y51121D01*
X727816Y51169D01*
X727712Y51214D01*
X727606Y51254D01*
X727499Y51291D01*
X727391Y51324D01*
X727281Y51354D01*
X727171Y51379D01*
X727060Y51401D01*
X726948Y51418D01*
X726835Y51432D01*
X726722Y51442D01*
X726609Y51448D01*
X726496Y51450D01*
X726383Y51448D01*
X726270Y51442D01*
X726157Y51432D01*
X726044Y51418D01*
X725932Y51401D01*
X725821Y51379D01*
X725711Y51354D01*
X725601Y51324D01*
X725493Y51291D01*
X725386Y51254D01*
X725280Y51214D01*
X725176Y51169D01*
X725073Y51121D01*
X724972Y51070D01*
X724873Y51015D01*
X724776Y50957D01*
X724681Y50895D01*
X724588Y50830D01*
X724498Y50762D01*
X724410Y50691D01*
X724324Y50616D01*
X724241Y50539D01*
X724161Y50459D01*
X724084Y50376D01*
X724009Y50290D01*
X723938Y50202D01*
X723870Y50112D01*
X723805Y50019D01*
X723743Y49924D01*
X723685Y49827D01*
X723630Y49728D01*
X723579Y49627D01*
X723531Y49524D01*
X723486Y49420D01*
X723446Y49314D01*
X723409Y49207D01*
X723376Y49099D01*
X723346Y48989D01*
X723321Y48879D01*
X723299Y48768D01*
X723282Y48656D01*
X723268Y48543D01*
X723258Y48430D01*
X723252Y48317D01*
X723250Y48204D01*
X723251Y48204D02*
X723251Y44958D01*
X723251Y48853D02*
X718058Y51449D01*
X718058Y56314D02*
X718058Y60209D01*
X718060Y60308D01*
X718066Y60408D01*
X718075Y60507D01*
X718088Y60605D01*
X718105Y60703D01*
X718126Y60801D01*
X718151Y60897D01*
X718179Y60992D01*
X718211Y61086D01*
X718246Y61179D01*
X718285Y61271D01*
X718328Y61361D01*
X718373Y61449D01*
X718423Y61536D01*
X718475Y61620D01*
X718531Y61703D01*
X718589Y61783D01*
X718651Y61861D01*
X718716Y61936D01*
X718784Y62009D01*
X718854Y62079D01*
X718927Y62147D01*
X719002Y62212D01*
X719080Y62274D01*
X719160Y62332D01*
X719243Y62388D01*
X719327Y62440D01*
X719414Y62490D01*
X719502Y62535D01*
X719592Y62578D01*
X719684Y62617D01*
X719777Y62652D01*
X719871Y62684D01*
X719966Y62712D01*
X720062Y62737D01*
X720160Y62758D01*
X720258Y62775D01*
X720356Y62788D01*
X720455Y62797D01*
X720555Y62803D01*
X720654Y62805D01*
X721953Y62805D01*
X722052Y62803D01*
X722152Y62797D01*
X722251Y62788D01*
X722349Y62775D01*
X722447Y62758D01*
X722545Y62737D01*
X722641Y62712D01*
X722736Y62684D01*
X722830Y62652D01*
X722923Y62617D01*
X723015Y62578D01*
X723105Y62535D01*
X723193Y62490D01*
X723280Y62440D01*
X723364Y62388D01*
X723447Y62332D01*
X723527Y62274D01*
X723605Y62212D01*
X723680Y62147D01*
X723753Y62079D01*
X723823Y62009D01*
X723891Y61936D01*
X723956Y61861D01*
X724018Y61783D01*
X724076Y61703D01*
X724132Y61620D01*
X724184Y61536D01*
X724234Y61449D01*
X724279Y61361D01*
X724322Y61271D01*
X724361Y61179D01*
X724396Y61086D01*
X724428Y60992D01*
X724456Y60897D01*
X724481Y60801D01*
X724502Y60703D01*
X724519Y60605D01*
X724532Y60507D01*
X724541Y60408D01*
X724547Y60308D01*
X724549Y60209D01*
X724549Y56314D01*
X729742Y56314D01*
X729742Y62805D01*
X727146Y67744D02*
X729742Y70990D01*
X718058Y70990D01*
X718058Y74235D02*
X718058Y67744D01*
M02*
