G04 EAGLE Gerber RS-274X export*
G75*
%MOMM*%
%FSLAX34Y34*%
%LPD*%
%INSoldermask Bottom*%
%IPPOS*%
%AMOC8*
5,1,8,0,0,1.08239X$1,22.5*%
G01*
%ADD10C,3.403600*%
%ADD11P,1.951982X8X112.500000*%
%ADD12C,1.803400*%
%ADD13P,1.951982X8X292.500000*%
%ADD14P,1.759533X8X22.500000*%
%ADD15C,1.524000*%
%ADD16P,1.649562X8X22.500000*%
%ADD17C,1.411200*%
%ADD18P,1.649562X8X202.500000*%
%ADD19P,1.951982X8X22.500000*%
%ADD20P,1.951982X8X202.500000*%
%ADD21P,1.649562X8X292.500000*%
%ADD22P,1.649562X8X112.500000*%
%ADD23C,1.727200*%
%ADD24C,0.959600*%


D10*
X311150Y158750D03*
X539750Y146050D03*
D11*
X571500Y82550D03*
D12*
X571500Y57150D03*
D13*
X273050Y57150D03*
D12*
X273050Y82550D03*
D14*
X374650Y57150D03*
X374650Y82550D03*
X400050Y57150D03*
X400050Y82550D03*
X425450Y57150D03*
X425450Y82550D03*
X450850Y57150D03*
X450850Y82550D03*
X476250Y57150D03*
X476250Y82550D03*
D15*
X628396Y209550D02*
X641604Y209550D01*
X641604Y234950D02*
X628396Y234950D01*
X628396Y260350D02*
X641604Y260350D01*
X641604Y285750D02*
X628396Y285750D01*
X628396Y311150D02*
X641604Y311150D01*
X641604Y336550D02*
X628396Y336550D01*
X628396Y361950D02*
X641604Y361950D01*
X641604Y387350D02*
X628396Y387350D01*
X565404Y387350D02*
X552196Y387350D01*
X552196Y361950D02*
X565404Y361950D01*
X565404Y336550D02*
X552196Y336550D01*
X552196Y311150D02*
X565404Y311150D01*
X565404Y285750D02*
X552196Y285750D01*
X552196Y260350D02*
X565404Y260350D01*
X565404Y234950D02*
X552196Y234950D01*
X552196Y209550D02*
X565404Y209550D01*
X286004Y488950D02*
X272796Y488950D01*
X272796Y514350D02*
X286004Y514350D01*
X286004Y641350D02*
X272796Y641350D01*
X272796Y666750D02*
X286004Y666750D01*
X286004Y539750D02*
X272796Y539750D01*
X272796Y565150D02*
X286004Y565150D01*
X286004Y615950D02*
X272796Y615950D01*
X272796Y590550D02*
X286004Y590550D01*
X209804Y666750D02*
X196596Y666750D01*
X196596Y641350D02*
X209804Y641350D01*
X209804Y615950D02*
X196596Y615950D01*
X196596Y590550D02*
X209804Y590550D01*
X209804Y565150D02*
X196596Y565150D01*
X196596Y539750D02*
X209804Y539750D01*
X209804Y514350D02*
X196596Y514350D01*
X196596Y488950D02*
X209804Y488950D01*
X272796Y209550D02*
X286004Y209550D01*
X286004Y234950D02*
X272796Y234950D01*
X272796Y361950D02*
X286004Y361950D01*
X286004Y387350D02*
X272796Y387350D01*
X272796Y260350D02*
X286004Y260350D01*
X286004Y285750D02*
X272796Y285750D01*
X272796Y336550D02*
X286004Y336550D01*
X286004Y311150D02*
X272796Y311150D01*
X209804Y387350D02*
X196596Y387350D01*
X196596Y361950D02*
X209804Y361950D01*
X209804Y336550D02*
X196596Y336550D01*
X196596Y311150D02*
X209804Y311150D01*
X209804Y285750D02*
X196596Y285750D01*
X196596Y260350D02*
X209804Y260350D01*
X209804Y234950D02*
X196596Y234950D01*
X196596Y209550D02*
X209804Y209550D01*
X628396Y609600D02*
X641604Y609600D01*
X641604Y635000D02*
X628396Y635000D01*
X628396Y660400D02*
X641604Y660400D01*
X641604Y685800D02*
X628396Y685800D01*
X628396Y711200D02*
X641604Y711200D01*
X641604Y736600D02*
X628396Y736600D01*
X628396Y762000D02*
X641604Y762000D01*
X641604Y787400D02*
X628396Y787400D01*
X565404Y787400D02*
X552196Y787400D01*
X552196Y762000D02*
X565404Y762000D01*
X565404Y736600D02*
X552196Y736600D01*
X552196Y711200D02*
X565404Y711200D01*
X565404Y685800D02*
X552196Y685800D01*
X552196Y660400D02*
X565404Y660400D01*
X565404Y635000D02*
X552196Y635000D01*
X552196Y609600D02*
X565404Y609600D01*
X286004Y723900D02*
X272796Y723900D01*
X272796Y749300D02*
X286004Y749300D01*
X286004Y774700D02*
X272796Y774700D01*
X272796Y800100D02*
X286004Y800100D01*
X286004Y825500D02*
X272796Y825500D01*
X272796Y850900D02*
X286004Y850900D01*
X286004Y876300D02*
X272796Y876300D01*
X272796Y901700D02*
X286004Y901700D01*
X209804Y901700D02*
X196596Y901700D01*
X196596Y876300D02*
X209804Y876300D01*
X209804Y850900D02*
X196596Y850900D01*
X196596Y825500D02*
X209804Y825500D01*
X209804Y800100D02*
X196596Y800100D01*
X196596Y774700D02*
X209804Y774700D01*
X209804Y749300D02*
X196596Y749300D01*
X196596Y723900D02*
X209804Y723900D01*
X710946Y412750D02*
X724154Y412750D01*
X724154Y463550D02*
X710946Y463550D01*
X710946Y438150D02*
X724154Y438150D01*
D16*
X679450Y488950D03*
X755650Y488950D03*
D17*
X641040Y463550D02*
X628960Y463550D01*
X628960Y488950D02*
X641040Y488950D01*
X641040Y514350D02*
X628960Y514350D01*
X628960Y539750D02*
X641040Y539750D01*
X564840Y539750D02*
X552760Y539750D01*
X552760Y514350D02*
X564840Y514350D01*
X564840Y488950D02*
X552760Y488950D01*
X552760Y463550D02*
X564840Y463550D01*
D18*
X755650Y565150D03*
X679450Y565150D03*
X755650Y514350D03*
X679450Y514350D03*
D16*
X679450Y539750D03*
X755650Y539750D03*
X679450Y660400D03*
X755650Y660400D03*
D18*
X755650Y635000D03*
X679450Y635000D03*
D16*
X692150Y762000D03*
X742950Y762000D03*
X692150Y609600D03*
X742950Y609600D03*
X679450Y711200D03*
X755650Y711200D03*
D15*
X578104Y819150D02*
X564896Y819150D01*
X564896Y869950D02*
X578104Y869950D01*
X578104Y844550D02*
X564896Y844550D01*
X615696Y819150D02*
X628904Y819150D01*
X628904Y869950D02*
X615696Y869950D01*
X615696Y844550D02*
X628904Y844550D01*
D18*
X755650Y685800D03*
X679450Y685800D03*
D19*
X730250Y869950D03*
D12*
X704850Y869950D03*
D16*
X679450Y787400D03*
X755650Y787400D03*
X438150Y660400D03*
X514350Y660400D03*
D18*
X514350Y685800D03*
X438150Y685800D03*
X501650Y711200D03*
X450850Y711200D03*
D16*
X438150Y787400D03*
X514350Y787400D03*
D18*
X755650Y812800D03*
X679450Y812800D03*
D16*
X679450Y311150D03*
X755650Y311150D03*
D15*
X692150Y159004D02*
X692150Y145796D01*
X742950Y145796D02*
X742950Y159004D01*
X717550Y159004D02*
X717550Y145796D01*
D18*
X755650Y184150D03*
X679450Y184150D03*
X755650Y285750D03*
X679450Y285750D03*
X755650Y260350D03*
X679450Y260350D03*
X755650Y234950D03*
X679450Y234950D03*
D16*
X692150Y209550D03*
X742950Y209550D03*
X692150Y361950D03*
X742950Y361950D03*
X679450Y387350D03*
X755650Y387350D03*
D15*
X406654Y774700D02*
X393446Y774700D01*
X330454Y774700D02*
X317246Y774700D01*
X317246Y749300D02*
X330454Y749300D01*
X393446Y749300D02*
X406654Y749300D01*
D18*
X387350Y876300D03*
X336550Y876300D03*
D15*
X336550Y717804D02*
X336550Y704596D01*
X387350Y704596D02*
X387350Y717804D01*
X361950Y717804D02*
X361950Y704596D01*
D16*
X323850Y800100D03*
X400050Y800100D03*
D18*
X400050Y825500D03*
X323850Y825500D03*
D16*
X323850Y901700D03*
X400050Y901700D03*
X450850Y812800D03*
X501650Y812800D03*
X438150Y590550D03*
X514350Y590550D03*
D15*
X95250Y710946D02*
X95250Y724154D01*
X146050Y724154D02*
X146050Y710946D01*
X120650Y710946D02*
X120650Y724154D01*
D18*
X400050Y514350D03*
X323850Y514350D03*
X158750Y800100D03*
X82550Y800100D03*
X158750Y774700D03*
X82550Y774700D03*
X158750Y749300D03*
X82550Y749300D03*
D20*
X107950Y654050D03*
D12*
X133350Y654050D03*
D18*
X158750Y825500D03*
X82550Y825500D03*
X158750Y901700D03*
X82550Y901700D03*
D11*
X44450Y889000D03*
D12*
X44450Y863600D03*
D18*
X514350Y565150D03*
X438150Y565150D03*
X514350Y539750D03*
X438150Y539750D03*
X514350Y514350D03*
X438150Y514350D03*
X514350Y488950D03*
X438150Y488950D03*
D16*
X336550Y311150D03*
X387350Y311150D03*
X323850Y260350D03*
X400050Y260350D03*
D18*
X387350Y184150D03*
X336550Y184150D03*
D16*
X323850Y234950D03*
X400050Y234950D03*
D18*
X400050Y209550D03*
X323850Y209550D03*
D20*
X120650Y361950D03*
D12*
X146050Y361950D03*
D16*
X323850Y361950D03*
X400050Y361950D03*
D15*
X387350Y387096D02*
X387350Y400304D01*
X336550Y400304D02*
X336550Y387096D01*
X361950Y387096D02*
X361950Y400304D01*
D16*
X323850Y463550D03*
X400050Y463550D03*
D15*
X437896Y184150D02*
X451104Y184150D01*
X451104Y234950D02*
X437896Y234950D01*
X437896Y209550D02*
X451104Y209550D01*
D18*
X279400Y450850D03*
X203200Y450850D03*
D15*
X317246Y539750D02*
X330454Y539750D01*
X393446Y539750D02*
X406654Y539750D01*
D16*
X323850Y590550D03*
X400050Y590550D03*
D18*
X387350Y565150D03*
X336550Y565150D03*
X514350Y285750D03*
X438150Y285750D03*
D16*
X336550Y615950D03*
X387350Y615950D03*
D18*
X514350Y260350D03*
X438150Y260350D03*
D16*
X450850Y311150D03*
X501650Y311150D03*
D18*
X514350Y361950D03*
X438150Y361950D03*
X514350Y387350D03*
X438150Y387350D03*
D19*
X488950Y431800D03*
D12*
X463550Y431800D03*
D15*
X501396Y234950D02*
X514604Y234950D01*
X514604Y184150D02*
X501396Y184150D01*
X501396Y209550D02*
X514604Y209550D01*
D16*
X558800Y177800D03*
X635000Y177800D03*
D15*
X95250Y571246D02*
X95250Y584454D01*
X146050Y584454D02*
X146050Y571246D01*
X120650Y571246D02*
X120650Y584454D01*
X679196Y101600D02*
X692404Y101600D01*
X692404Y50800D02*
X679196Y50800D01*
X679196Y76200D02*
X692404Y76200D01*
D18*
X158750Y615950D03*
X82550Y615950D03*
D21*
X800100Y107950D03*
X800100Y31750D03*
X749300Y107950D03*
X749300Y31750D03*
D22*
X723900Y31750D03*
X723900Y107950D03*
D21*
X774700Y107950D03*
X774700Y31750D03*
D18*
X501650Y336550D03*
X450850Y336550D03*
X146050Y850900D03*
X95250Y850900D03*
X501650Y736600D03*
X450850Y736600D03*
D16*
X692150Y736600D03*
X742950Y736600D03*
X336550Y850900D03*
X387350Y850900D03*
X692150Y336550D03*
X742950Y336550D03*
X336550Y285750D03*
X387350Y285750D03*
D18*
X146050Y488950D03*
X95250Y488950D03*
D16*
X336550Y666750D03*
X387350Y666750D03*
D18*
X622300Y571500D03*
X571500Y571500D03*
D16*
X571500Y431800D03*
X622300Y431800D03*
D23*
X817880Y622300D02*
X833120Y622300D01*
X833120Y647700D02*
X817880Y647700D01*
X817880Y673100D02*
X833120Y673100D01*
X833120Y698500D02*
X817880Y698500D01*
X33020Y730250D02*
X17780Y730250D01*
X17780Y755650D02*
X33020Y755650D01*
X33020Y781050D02*
X17780Y781050D01*
X17780Y806450D02*
X33020Y806450D01*
X817880Y520700D02*
X833120Y520700D01*
X833120Y546100D02*
X817880Y546100D01*
X817880Y571500D02*
X833120Y571500D01*
X833120Y419100D02*
X817880Y419100D01*
X817880Y444500D02*
X833120Y444500D01*
X833120Y469900D02*
X817880Y469900D01*
X817880Y368300D02*
X833120Y368300D01*
X833120Y342900D02*
X817880Y342900D01*
X817880Y317500D02*
X833120Y317500D01*
X33020Y685800D02*
X17780Y685800D01*
X17780Y660400D02*
X33020Y660400D01*
X33020Y635000D02*
X17780Y635000D01*
X17780Y609600D02*
X33020Y609600D01*
X33020Y584200D02*
X17780Y584200D01*
D24*
X590550Y127000D03*
X234950Y285750D03*
X234950Y222250D03*
X590550Y698500D03*
X234950Y469900D03*
X603250Y374650D03*
X660400Y412750D03*
X730250Y673100D03*
X304800Y495300D03*
X177800Y247650D03*
X304800Y692150D03*
X425450Y336550D03*
X361950Y438150D03*
X374650Y552450D03*
X400050Y323850D03*
X704850Y577850D03*
X673100Y590550D03*
X774700Y196850D03*
X304800Y812800D03*
X400050Y679450D03*
X495300Y635000D03*
X514350Y635000D03*
X355600Y628650D03*
X533400Y603250D03*
X533400Y412750D03*
X63500Y450850D03*
X412750Y476250D03*
M02*
