M48
;GenerationSoftware,Autodesk,EAGLE,9.6.2*%
;CreationDate,2022-05-28T20:25:52Z*%
FMAT,2
ICI,OFF
METRIC,TZ,000.000
T6C0.350
T5C0.813
T4C1.016
T3C1.100
T2C1.803
T1C2.100
%
G90
M71
T1
X30425Y33020
X25345Y53340
X34345Y53340
X4390Y77470
X13390Y77470
X4390Y95885
X13390Y95885
X29900Y95885
X28630Y8890
X19630Y8890
X20900Y95885
X39425Y33020
X21010Y38735
X29900Y77470
X20900Y77470
X12010Y38735
T2
X41910Y90424
X41910Y81026
X41910Y85725
X40640Y4191
X40640Y8890
X40640Y13589
T3
X16510Y31735
X14010Y31735
X7620Y5390
X25400Y70470
X19010Y31735
X27900Y70470
X7620Y13890
X37425Y26020
X34925Y26020
X32425Y26020
X27345Y46340
X7620Y2390
X22900Y70470
X26630Y1890
X6390Y88885
X8890Y88885
X11390Y88885
X24130Y1890
X21630Y1890
X27900Y88885
X25400Y88885
X6390Y70470
X8890Y70470
X11390Y70470
X29845Y46340
X32345Y46340
X22900Y88885
T4
X17145Y47625
X17145Y50165
X17145Y52705
X50800Y10160
X50800Y7620
X50800Y5080
X50800Y2540
X17145Y62865
X17145Y60325
X17145Y57785
X17145Y73025
X17145Y70485
X17145Y67945
X17145Y85725
X17145Y83185
X17145Y80645
X17145Y78105
T5
X38100Y74295
X45720Y74295
X45720Y71755
X38100Y71755
X41910Y49530
X41910Y57150
X32385Y17780
X37465Y17780
X31115Y22860
X38735Y22860
X6350Y66675
X39370Y57150
X39370Y49530
X12700Y23495
X20320Y23495
X31115Y20320
X38735Y20320
X13970Y27940
X19050Y27940
X16510Y27940
X15875Y5715
X15875Y13335
X3810Y19685
X11430Y19685
X5080Y17145
X10160Y17145
X29210Y64770
X21590Y64770
X21590Y67310
X29210Y67310
X32385Y43180
X24765Y43180
X46990Y67945
X44450Y67945
X44450Y60325
X46990Y60325
X41910Y67945
X39370Y67945
X41910Y60325
X39370Y60325
X36195Y61595
X36195Y66675
X44450Y52705
X44450Y57785
X38100Y76835
X45720Y76835
X6350Y59055
X11430Y66675
X8890Y66675
X12700Y85725
X5080Y85725
X12700Y62230
X5080Y62230
X11430Y59055
X21590Y85725
X29210Y85725
T6
X32385Y63500
X31115Y67310
X10795Y46355
X29845Y60325
X7620Y47625
M30