G04 EAGLE Gerber RS-274X export*
G75*
%MOMM*%
%FSLAX34Y34*%
%LPD*%
%INSoldermask Top*%
%IPPOS*%
%AMOC8*
5,1,8,0,0,1.08239X$1,22.5*%
G01*
%ADD10R,1.879600X1.879600*%
%ADD11P,2.034460X8X292.500000*%
%ADD12R,3.319200X3.319200*%
%ADD13C,1.853200*%
%ADD14P,1.649562X8X202.500000*%
%ADD15P,1.649562X8X292.500000*%
%ADD16C,2.908300*%
%ADD17C,1.524000*%
%ADD18P,1.649562X8X22.500000*%
%ADD19C,1.524000*%
%ADD20P,1.649562X8X112.500000*%
%ADD21C,1.727200*%
%ADD22C,0.959600*%


D10*
X216300Y18900D03*
D11*
X241300Y18900D03*
X266300Y18900D03*
D12*
X286300Y88900D03*
X196300Y88900D03*
D10*
X229000Y704700D03*
D11*
X254000Y704700D03*
X279000Y704700D03*
D12*
X299000Y774700D03*
X209000Y774700D03*
D13*
X76200Y138900D03*
X76200Y53900D03*
X76200Y23900D03*
D14*
X101600Y171450D03*
X50800Y171450D03*
X114300Y196850D03*
X38100Y196850D03*
D15*
X158750Y133350D03*
X158750Y57150D03*
D14*
X203200Y234950D03*
X127000Y234950D03*
D16*
X392875Y135890D02*
X419926Y135890D01*
X419926Y88900D02*
X392875Y88900D01*
X392875Y41910D02*
X419926Y41910D01*
D17*
X393700Y488696D02*
X393700Y501904D01*
X393700Y564896D02*
X393700Y578104D01*
X63500Y660146D02*
X63500Y673354D01*
X114300Y673354D02*
X114300Y660146D01*
X88900Y660146D02*
X88900Y673354D01*
D14*
X127000Y857250D03*
X50800Y857250D03*
D10*
X63900Y888850D03*
D11*
X88900Y888850D03*
X113900Y888850D03*
D12*
X133900Y958850D03*
X43900Y958850D03*
D14*
X127000Y622300D03*
X50800Y622300D03*
D10*
X63900Y704700D03*
D11*
X88900Y704700D03*
X113900Y704700D03*
D12*
X133900Y774700D03*
X43900Y774700D03*
D14*
X114300Y590550D03*
X63500Y590550D03*
X292100Y647700D03*
X215900Y647700D03*
D18*
X215900Y673100D03*
X292100Y673100D03*
D14*
X292100Y857250D03*
X215900Y857250D03*
D10*
X229000Y888850D03*
D11*
X254000Y888850D03*
X279000Y888850D03*
D12*
X299000Y958850D03*
X209000Y958850D03*
D16*
X405575Y810260D02*
X432626Y810260D01*
X432626Y857250D02*
X405575Y857250D01*
X405575Y904240D02*
X432626Y904240D01*
D14*
X457200Y768350D03*
X381000Y768350D03*
D18*
X381000Y742950D03*
X457200Y742950D03*
D14*
X457200Y717550D03*
X381000Y717550D03*
D17*
X419100Y501904D02*
X419100Y488696D01*
X419100Y564896D02*
X419100Y578104D01*
D18*
X323850Y177800D03*
X374650Y177800D03*
X311150Y228600D03*
X387350Y228600D03*
D10*
X324250Y260200D03*
D11*
X349250Y260200D03*
X374250Y260200D03*
D12*
X394250Y330200D03*
X304250Y330200D03*
D18*
X311150Y203200D03*
X387350Y203200D03*
D17*
X139700Y272796D02*
X139700Y286004D01*
X190500Y286004D02*
X190500Y272796D01*
X165100Y272796D02*
X165100Y286004D01*
D10*
X140100Y317350D03*
D11*
X165100Y317350D03*
X190100Y317350D03*
D12*
X210100Y387350D03*
X120100Y387350D03*
D10*
X273450Y463400D03*
D11*
X298450Y463400D03*
X323450Y463400D03*
D12*
X343450Y533400D03*
X253450Y533400D03*
D14*
X323850Y431800D03*
X247650Y431800D03*
D19*
X469900Y679450D03*
X444500Y679450D03*
X444500Y603250D03*
X469900Y603250D03*
X419100Y679450D03*
X393700Y679450D03*
X419100Y603250D03*
X393700Y603250D03*
D20*
X361950Y615950D03*
X361950Y666750D03*
X444500Y527050D03*
X444500Y577850D03*
D21*
X179070Y781050D02*
X163830Y781050D01*
X163830Y806450D02*
X179070Y806450D01*
X179070Y831850D02*
X163830Y831850D01*
X163830Y857250D02*
X179070Y857250D01*
X179070Y679450D02*
X163830Y679450D01*
X163830Y704850D02*
X179070Y704850D01*
X179070Y730250D02*
X163830Y730250D01*
X163830Y577850D02*
X179070Y577850D01*
X179070Y603250D02*
X163830Y603250D01*
X163830Y628650D02*
X179070Y628650D01*
X500380Y25400D02*
X515620Y25400D01*
X515620Y50800D02*
X500380Y50800D01*
X500380Y76200D02*
X515620Y76200D01*
X515620Y101600D02*
X500380Y101600D01*
X179070Y527050D02*
X163830Y527050D01*
X163830Y501650D02*
X179070Y501650D01*
X179070Y476250D02*
X163830Y476250D01*
D22*
X76200Y476250D03*
X323850Y635000D03*
X311150Y673100D03*
X107950Y463550D03*
X298450Y603250D03*
M02*
