G04 EAGLE Gerber RS-274X export*
G75*
%MOMM*%
%FSLAX34Y34*%
%LPD*%
%INTop Copper*%
%IPPOS*%
%AMOC8*
5,1,8,0,0,1.08239X$1,22.5*%
G01*
%ADD10R,1.676400X1.676400*%
%ADD11P,1.814519X8X292.500000*%
%ADD12R,3.116000X3.116000*%
%ADD13P,1.732040X8X22.500000*%
%ADD14C,1.600200*%
%ADD15P,1.429621X8X202.500000*%
%ADD16C,1.650000*%
%ADD17C,1.320800*%
%ADD18P,1.429621X8X292.500000*%
%ADD19P,1.429621X8X112.500000*%
%ADD20C,2.705100*%
%ADD21C,1.320800*%
%ADD22C,1.524000*%
%ADD23C,0.304800*%
%ADD24C,0.406400*%
%ADD25C,0.756400*%


D10*
X203600Y76050D03*
D11*
X228600Y76050D03*
X253600Y76050D03*
D12*
X273600Y146050D03*
X183600Y146050D03*
D13*
X374650Y88900D03*
D14*
X349250Y88900D03*
D15*
X114300Y654050D03*
X38100Y654050D03*
D16*
X247650Y640550D03*
X247650Y555550D03*
X247650Y525550D03*
D17*
X178054Y857250D02*
X164846Y857250D01*
X101854Y857250D02*
X88646Y857250D01*
D18*
X165100Y939800D03*
X165100Y889000D03*
D15*
X285750Y857250D03*
X209550Y857250D03*
D10*
X222650Y888850D03*
D11*
X247650Y888850D03*
X272650Y888850D03*
D12*
X292650Y958850D03*
X202650Y958850D03*
D19*
X165100Y730250D03*
X165100Y806450D03*
D17*
X50800Y603504D02*
X50800Y590296D01*
X101600Y590296D02*
X101600Y603504D01*
X76200Y603504D02*
X76200Y590296D01*
D10*
X57550Y888850D03*
D11*
X82550Y888850D03*
X107550Y888850D03*
D12*
X127550Y958850D03*
X37550Y958850D03*
D10*
X63900Y196700D03*
D11*
X88900Y196700D03*
X113900Y196700D03*
D12*
X133900Y266700D03*
X43900Y266700D03*
D10*
X235350Y272900D03*
D11*
X260350Y272900D03*
X285350Y272900D03*
D12*
X305350Y342900D03*
X215350Y342900D03*
D15*
X114300Y336550D03*
X38100Y336550D03*
X311150Y241300D03*
X234950Y241300D03*
D10*
X57550Y704700D03*
D11*
X82550Y704700D03*
X107550Y704700D03*
D12*
X127550Y774700D03*
X37550Y774700D03*
D15*
X114300Y628650D03*
X38100Y628650D03*
D10*
X222650Y704700D03*
D11*
X247650Y704700D03*
X272650Y704700D03*
D12*
X292650Y774700D03*
X202650Y774700D03*
D20*
X399225Y829310D02*
X426276Y829310D01*
X426276Y876300D02*
X399225Y876300D01*
X399225Y923290D02*
X426276Y923290D01*
D10*
X463950Y330050D03*
D11*
X488950Y330050D03*
X513950Y330050D03*
D12*
X533950Y400050D03*
X443950Y400050D03*
D10*
X463950Y488800D03*
D11*
X488950Y488800D03*
X513950Y488800D03*
D12*
X533950Y558800D03*
X443950Y558800D03*
D10*
X463950Y653900D03*
D11*
X488950Y653900D03*
X513950Y653900D03*
D12*
X533950Y723900D03*
X443950Y723900D03*
D19*
X114300Y361950D03*
X114300Y438150D03*
D18*
X38100Y438150D03*
X38100Y361950D03*
X63500Y438150D03*
X63500Y361950D03*
D19*
X88900Y361950D03*
X88900Y438150D03*
D10*
X463950Y18900D03*
D11*
X488950Y18900D03*
X513950Y18900D03*
D12*
X533950Y88900D03*
X443950Y88900D03*
D18*
X406400Y127000D03*
X406400Y50800D03*
D16*
X488950Y284950D03*
X488950Y199950D03*
X488950Y169950D03*
D21*
X38100Y463550D03*
X63500Y463550D03*
X63500Y539750D03*
X38100Y539750D03*
X88900Y463550D03*
X114300Y463550D03*
X88900Y539750D03*
X114300Y539750D03*
D22*
X398780Y673100D02*
X414020Y673100D01*
X414020Y698500D02*
X398780Y698500D01*
X398780Y723900D02*
X414020Y723900D01*
X414020Y749300D02*
X398780Y749300D01*
X33020Y25400D02*
X17780Y25400D01*
X17780Y50800D02*
X33020Y50800D01*
X33020Y76200D02*
X17780Y76200D01*
X17780Y101600D02*
X33020Y101600D01*
D19*
X146050Y609600D03*
X146050Y685800D03*
D18*
X171450Y685800D03*
X171450Y609600D03*
D22*
X398780Y622300D02*
X414020Y622300D01*
X414020Y596900D02*
X398780Y596900D01*
X398780Y571500D02*
X414020Y571500D01*
X414020Y546100D02*
X398780Y546100D01*
X398780Y520700D02*
X414020Y520700D01*
D23*
X50800Y641350D02*
X38100Y654050D01*
X50800Y641350D02*
X50800Y596900D01*
X25400Y101600D02*
X127000Y101600D01*
X158750Y133350D01*
X158750Y196850D01*
X114300Y196700D01*
D24*
X113900Y196700D01*
D23*
X260344Y196844D01*
X285750Y222250D01*
X285350Y272900D02*
X285750Y285750D01*
X285750Y222250D01*
X50800Y571500D02*
X50800Y596900D01*
X63500Y558800D02*
X152400Y558800D01*
X254000Y457200D01*
X254000Y317350D02*
X285750Y285750D01*
X63500Y558800D02*
X50800Y571500D01*
X254000Y457200D02*
X254000Y317350D01*
X133350Y50800D02*
X25400Y50800D01*
X133350Y50800D02*
X311150Y228600D01*
X311150Y241300D01*
X57550Y672700D02*
X57550Y704700D01*
X57550Y672700D02*
X63500Y666750D01*
X63500Y577850D01*
X69850Y571500D01*
X165100Y571500D01*
X273050Y463550D01*
X273050Y323850D01*
X311150Y285750D01*
X311150Y241300D01*
X165100Y876300D02*
X165100Y889000D01*
X165100Y876300D02*
X171450Y869950D01*
X171450Y857250D01*
X171450Y825500D01*
X165100Y819150D01*
X165100Y806450D01*
X171450Y857250D02*
X209550Y857250D01*
X120650Y875750D02*
X107550Y888850D01*
X120650Y819150D02*
X101600Y800100D01*
X101600Y749300D01*
X127000Y723900D01*
X107950Y596900D02*
X101600Y596900D01*
X120650Y819150D02*
X120650Y875750D01*
X127000Y723900D02*
X127000Y615950D01*
X107950Y596900D01*
D24*
X273050Y888450D02*
X272650Y888850D01*
D23*
X273050Y888450D02*
X273050Y869950D01*
X285750Y857250D01*
X387350Y749300D02*
X406400Y749300D01*
X387350Y749300D02*
X342900Y704850D01*
X342900Y241300D02*
X298450Y196850D01*
X298450Y120650D01*
X254000Y76200D01*
X253600Y76050D01*
X342900Y241300D02*
X342900Y704850D01*
X387350Y723900D02*
X406400Y723900D01*
X387350Y723900D02*
X355600Y692150D01*
D25*
X361950Y158750D03*
D23*
X355600Y241300D02*
X355600Y692150D01*
X355600Y241300D02*
X361950Y234950D01*
X361950Y158750D01*
X63900Y196700D02*
X63500Y222250D01*
X76200Y234950D01*
X76200Y298450D01*
X38100Y336550D01*
X387350Y698500D02*
X406400Y698500D01*
X387350Y698500D02*
X368300Y679450D01*
D25*
X374650Y209550D03*
D23*
X368300Y247650D02*
X368300Y679450D01*
X368300Y247650D02*
X374650Y241300D01*
X374650Y209550D01*
D24*
X235350Y272900D02*
X234950Y272900D01*
D23*
X234950Y241300D01*
D25*
X387350Y298450D03*
D23*
X381000Y647700D02*
X406400Y673100D01*
X381000Y647700D02*
X381000Y355600D01*
X387350Y349250D01*
X387350Y298450D01*
D24*
X107950Y704300D02*
X107550Y704700D01*
D23*
X107950Y704300D02*
X107950Y673100D01*
X114300Y666750D01*
X114300Y654050D01*
D24*
X272650Y704700D02*
X272650Y704850D01*
D23*
X342900Y730250D02*
X342900Y850900D01*
X368300Y876300D01*
X412750Y876300D01*
X317500Y704850D02*
X272650Y704850D01*
X317500Y704850D02*
X342900Y730250D01*
D24*
X247650Y527050D02*
X247650Y525550D01*
D23*
X247650Y527050D02*
X292100Y527050D01*
X317500Y552450D01*
X317500Y704850D01*
X488950Y653900D02*
X488950Y514350D01*
D25*
X488950Y514350D03*
D23*
X514350Y679450D02*
X508000Y685800D01*
X514350Y679450D02*
X514350Y653900D01*
D24*
X513950Y653900D01*
D23*
X508000Y685800D02*
X508000Y831850D01*
X513950Y653900D02*
X513950Y590950D01*
D25*
X513950Y590950D03*
X508000Y831850D03*
D23*
X513950Y513950D02*
X513950Y488800D01*
X513950Y513950D02*
X514350Y520700D01*
X501650Y533400D02*
X501650Y603250D01*
X501650Y533400D02*
X514350Y520700D01*
X419100Y920750D02*
X412750Y923290D01*
X419100Y920750D02*
X469900Y920750D01*
X495300Y895350D01*
X495300Y679450D01*
X501650Y673100D01*
X501650Y603250D01*
D25*
X501650Y603250D03*
D23*
X450850Y622300D02*
X406400Y622300D01*
X450850Y622300D02*
X476250Y596900D01*
X476250Y387350D01*
X514350Y349250D01*
X514350Y330450D01*
X513950Y330050D01*
D24*
X88900Y406400D02*
X88900Y438150D01*
X88900Y406400D02*
X114300Y381000D01*
X114300Y361950D01*
D23*
X88900Y361950D02*
X88900Y234950D01*
D25*
X88900Y234950D03*
D23*
X349250Y88900D02*
X387350Y127000D01*
X387350Y222250D01*
D25*
X387350Y222250D03*
D24*
X88900Y508000D02*
X88900Y539750D01*
X88900Y508000D02*
X76200Y495300D01*
X76200Y387350D01*
X88900Y374650D01*
X88900Y361950D01*
X513950Y18900D02*
X514350Y19050D01*
D23*
X514350Y38100D01*
X501650Y50800D01*
X406400Y50800D01*
X406400Y101600D02*
X406400Y127000D01*
X406400Y101600D02*
X393700Y88900D01*
X374650Y88900D01*
X82550Y901700D02*
X95250Y914400D01*
X133350Y914400D02*
X146050Y901700D01*
X146050Y749300D02*
X146050Y685800D01*
X82550Y888850D02*
X82550Y901700D01*
X95250Y914400D02*
X133350Y914400D01*
X146050Y901700D02*
X146050Y800100D01*
X152400Y793750D01*
X152400Y755650D01*
X146050Y749300D01*
D25*
X330200Y609600D03*
D23*
X330200Y520700D01*
D25*
X330200Y520700D03*
D23*
X247650Y692150D02*
X247650Y704700D01*
X247650Y692150D02*
X241300Y685800D01*
X171450Y685800D01*
M02*
