M48
;GenerationSoftware,Autodesk,EAGLE,9.6.2*%
;CreationDate,2022-05-04T15:20:38Z*%
FMAT,2
ICI,OFF
METRIC,TZ,000.000
T7C0.350
T6C0.813
T5C1.016
T4C1.100
T3C1.803
T2C2.100
T1C3.200
%
G90
M71
T1
X11430Y15875
T2
X3755Y77470
X12755Y77470
X29265Y77470
X20265Y77470
X44395Y8890
X53395Y8890
X21535Y34290
X30535Y34290
X44395Y72390
X53395Y72390
X4390Y26670
X13390Y26670
X3755Y95885
X27360Y14605
X18360Y14605
X12755Y95885
X44395Y55880
X20265Y95885
X29265Y95885
X53395Y40005
X53395Y55880
X44395Y40005
T3
X41275Y82931
X41275Y87630
X41275Y92329
T4
X48895Y48880
X46395Y48880
X51395Y48880
X24765Y52555
X22265Y88885
X24765Y88885
X27265Y88885
X24765Y55555
X24765Y64055
X51395Y33005
X48895Y33005
X46395Y33005
X46395Y65390
X48895Y65390
X5755Y88885
X8255Y88885
X10755Y88885
X51395Y65390
X25360Y7605
X6390Y19670
X8890Y19670
X11390Y19670
X22860Y7605
X20360Y7605
X23535Y27290
X26035Y27290
X28535Y27290
X46395Y1890
X48895Y1890
X51395Y1890
X48895Y28495
X48895Y19995
X27265Y70470
X5755Y70470
X8255Y70470
X10755Y70470
X48895Y16995
X22265Y70470
X24765Y70470
T5
X40640Y52070
X2540Y5080
X2540Y2540
X40640Y74930
X40640Y72390
X40640Y69850
X40640Y67310
X2540Y7620
X2540Y10160
X40640Y62230
X40640Y59690
X40640Y57150
X40640Y54610
T6
X28575Y85725
X16510Y88900
X16510Y93980
X9525Y85725
X17145Y85725
X3810Y65405
X11430Y65405
X34925Y8890
X37465Y8890
X20955Y85725
X16510Y73025
X11430Y36195
X11430Y43815
X3810Y43815
X3810Y36195
X3810Y62865
X6350Y36195
X8890Y36195
X8890Y43815
X16510Y80645
X5080Y59690
X17145Y60960
X17145Y68580
X14605Y68580
X40640Y12700
X40640Y5080
X14605Y60960
X10160Y59690
X7620Y59690
X3810Y46355
X6350Y46355
X6350Y53975
X3810Y53975
X8890Y46355
X11430Y46355
X8890Y53975
X11430Y53975
X11430Y33655
X3810Y33655
X31115Y24130
X23495Y24130
X11430Y62865
X6350Y43815
T7
X37465Y20955
X38735Y29845
X48895Y51435
X51395Y59095
X50800Y83185
X50165Y60325
X8890Y23495
X38735Y22225
X33020Y60960
X33020Y52070
X36195Y15875
M30