G04 EAGLE Gerber RS-274X export*
G75*
%MOMM*%
%FSLAX34Y34*%
%LPD*%
%INSoldermask Bottom*%
%IPPOS*%
%AMOC8*
5,1,8,0,0,1.08239X$1,22.5*%
G01*
%ADD10C,3.403600*%
%ADD11R,1.879600X1.879600*%
%ADD12P,2.034460X8X292.500000*%
%ADD13R,3.319200X3.319200*%
%ADD14P,1.951982X8X22.500000*%
%ADD15C,1.803400*%
%ADD16P,1.649562X8X202.500000*%
%ADD17C,1.853200*%
%ADD18C,1.524000*%
%ADD19P,1.649562X8X292.500000*%
%ADD20P,1.649562X8X112.500000*%
%ADD21C,2.908300*%
%ADD22C,1.524000*%
%ADD23C,1.727200*%
%ADD24C,0.959600*%


D10*
X114300Y158750D03*
D11*
X203600Y76050D03*
D12*
X228600Y76050D03*
X253600Y76050D03*
D13*
X273600Y146050D03*
X183600Y146050D03*
D14*
X374650Y88900D03*
D15*
X349250Y88900D03*
D16*
X114300Y654050D03*
X38100Y654050D03*
D17*
X247650Y640550D03*
X247650Y555550D03*
X247650Y525550D03*
D18*
X178054Y857250D02*
X164846Y857250D01*
X101854Y857250D02*
X88646Y857250D01*
D19*
X165100Y939800D03*
X165100Y889000D03*
D16*
X285750Y857250D03*
X209550Y857250D03*
D11*
X222650Y888850D03*
D12*
X247650Y888850D03*
X272650Y888850D03*
D13*
X292650Y958850D03*
X202650Y958850D03*
D20*
X165100Y730250D03*
X165100Y806450D03*
D18*
X50800Y603504D02*
X50800Y590296D01*
X101600Y590296D02*
X101600Y603504D01*
X76200Y603504D02*
X76200Y590296D01*
D11*
X57550Y888850D03*
D12*
X82550Y888850D03*
X107550Y888850D03*
D13*
X127550Y958850D03*
X37550Y958850D03*
D11*
X63900Y196700D03*
D12*
X88900Y196700D03*
X113900Y196700D03*
D13*
X133900Y266700D03*
X43900Y266700D03*
D11*
X235350Y272900D03*
D12*
X260350Y272900D03*
X285350Y272900D03*
D13*
X305350Y342900D03*
X215350Y342900D03*
D16*
X114300Y336550D03*
X38100Y336550D03*
X311150Y241300D03*
X234950Y241300D03*
D11*
X57550Y704700D03*
D12*
X82550Y704700D03*
X107550Y704700D03*
D13*
X127550Y774700D03*
X37550Y774700D03*
D16*
X114300Y628650D03*
X38100Y628650D03*
D11*
X222650Y704700D03*
D12*
X247650Y704700D03*
X272650Y704700D03*
D13*
X292650Y774700D03*
X202650Y774700D03*
D21*
X399225Y829310D02*
X426276Y829310D01*
X426276Y876300D02*
X399225Y876300D01*
X399225Y923290D02*
X426276Y923290D01*
D11*
X463950Y330050D03*
D12*
X488950Y330050D03*
X513950Y330050D03*
D13*
X533950Y400050D03*
X443950Y400050D03*
D11*
X463950Y488800D03*
D12*
X488950Y488800D03*
X513950Y488800D03*
D13*
X533950Y558800D03*
X443950Y558800D03*
D11*
X463950Y653900D03*
D12*
X488950Y653900D03*
X513950Y653900D03*
D13*
X533950Y723900D03*
X443950Y723900D03*
D20*
X114300Y361950D03*
X114300Y438150D03*
D19*
X38100Y438150D03*
X38100Y361950D03*
X63500Y438150D03*
X63500Y361950D03*
D20*
X88900Y361950D03*
X88900Y438150D03*
D11*
X463950Y18900D03*
D12*
X488950Y18900D03*
X513950Y18900D03*
D13*
X533950Y88900D03*
X443950Y88900D03*
D19*
X406400Y127000D03*
X406400Y50800D03*
D17*
X488950Y284950D03*
X488950Y199950D03*
X488950Y169950D03*
D22*
X38100Y463550D03*
X63500Y463550D03*
X63500Y539750D03*
X38100Y539750D03*
X88900Y463550D03*
X114300Y463550D03*
X88900Y539750D03*
X114300Y539750D03*
D23*
X398780Y673100D02*
X414020Y673100D01*
X414020Y698500D02*
X398780Y698500D01*
X398780Y723900D02*
X414020Y723900D01*
X414020Y749300D02*
X398780Y749300D01*
X33020Y25400D02*
X17780Y25400D01*
X17780Y50800D02*
X33020Y50800D01*
X33020Y76200D02*
X17780Y76200D01*
X17780Y101600D02*
X33020Y101600D01*
D20*
X146050Y609600D03*
X146050Y685800D03*
D19*
X171450Y685800D03*
X171450Y609600D03*
D23*
X398780Y622300D02*
X414020Y622300D01*
X414020Y596900D02*
X398780Y596900D01*
X398780Y571500D02*
X414020Y571500D01*
X414020Y546100D02*
X398780Y546100D01*
X398780Y520700D02*
X414020Y520700D01*
D24*
X361950Y158750D03*
X374650Y209550D03*
X387350Y298450D03*
X488950Y514350D03*
X513950Y590950D03*
X508000Y831850D03*
X501650Y603250D03*
X88900Y234950D03*
X387350Y222250D03*
X330200Y609600D03*
X330200Y520700D03*
M02*
