G04 EAGLE Gerber RS-274X export*
G75*
%MOMM*%
%FSLAX34Y34*%
%LPD*%
%IN*%
%IPPOS*%
%AMOC8*
5,1,8,0,0,1.08239X$1,22.5*%
G01*
%ADD10C,0.254000*%


D10*
X0Y0D02*
X565150Y0D01*
X565150Y990600D01*
X0Y990500D01*
X0Y0D01*
X130302Y158226D02*
X130233Y157181D01*
X130097Y156142D01*
X129892Y155114D01*
X129621Y154102D01*
X129284Y153110D01*
X128883Y152142D01*
X128420Y151203D01*
X127896Y150295D01*
X127314Y149424D01*
X126676Y148593D01*
X125986Y147805D01*
X125245Y147064D01*
X124457Y146374D01*
X123626Y145736D01*
X122755Y145154D01*
X121847Y144630D01*
X120908Y144167D01*
X119940Y143766D01*
X118948Y143429D01*
X117936Y143158D01*
X116908Y142953D01*
X115869Y142817D01*
X114824Y142748D01*
X113776Y142748D01*
X112731Y142817D01*
X111692Y142953D01*
X110664Y143158D01*
X109652Y143429D01*
X108660Y143766D01*
X107692Y144167D01*
X106753Y144630D01*
X105845Y145154D01*
X104974Y145736D01*
X104143Y146374D01*
X103355Y147064D01*
X102614Y147805D01*
X101924Y148593D01*
X101286Y149424D01*
X100704Y150295D01*
X100180Y151203D01*
X99717Y152142D01*
X99316Y153110D01*
X98979Y154102D01*
X98708Y155114D01*
X98503Y156142D01*
X98367Y157181D01*
X98298Y158226D01*
X98298Y159274D01*
X98367Y160319D01*
X98503Y161358D01*
X98708Y162386D01*
X98979Y163398D01*
X99316Y164390D01*
X99717Y165358D01*
X100180Y166297D01*
X100704Y167205D01*
X101286Y168076D01*
X101924Y168907D01*
X102614Y169695D01*
X103355Y170436D01*
X104143Y171126D01*
X104974Y171764D01*
X105845Y172346D01*
X106753Y172870D01*
X107692Y173333D01*
X108660Y173734D01*
X109652Y174071D01*
X110664Y174342D01*
X111692Y174547D01*
X112731Y174683D01*
X113776Y174752D01*
X114824Y174752D01*
X115869Y174683D01*
X116908Y174547D01*
X117936Y174342D01*
X118948Y174071D01*
X119940Y173734D01*
X120908Y173333D01*
X121847Y172870D01*
X122755Y172346D01*
X123626Y171764D01*
X124457Y171126D01*
X125245Y170436D01*
X125986Y169695D01*
X126676Y168907D01*
X127314Y168076D01*
X127896Y167205D01*
X128420Y166297D01*
X128883Y165358D01*
X129284Y164390D01*
X129621Y163398D01*
X129892Y162386D01*
X130097Y161358D01*
X130233Y160319D01*
X130302Y159274D01*
X130302Y158226D01*
M02*
